<?xml version="1.0" encoding="utf-8"?>
<!-- Generator: Adobe Illustrator 24.0.0, SVG Export Plug-In . SVG Version: 6.00 Build 0)  -->
<svg version="1.1" id="us-map" xmlns="http://www.w3.org/2000/svg" xmlns:xlink="http://www.w3.org/1999/xlink" x="0px" y="0px"
	 viewBox="0 0 929.4 672" style="enable-background:new 0 0 929.4 672;" xml:space="preserve">
<style type="text/css">
	.st0{fill:#63666A;stroke:#FFFFFF;stroke-width:0.75;}
	.st1{fill:#63666A;stroke:#FFFFFF;stroke-width:0.75;stroke-miterlimit:10;}
	.st2{fill:#F2B411;}
	.st3{fill:#078576;stroke:#FFFFFF;stroke-width:0.75;stroke-miterlimit:10;}
	.st4{fill:#DDDDDD;stroke:#FFFFFF;stroke-width:0.75;stroke-miterlimit:10;}
	.st5{fill:#63666A;stroke:#FFFFFF;stroke-miterlimit:10;}
	.st6{fill:#F2B411;stroke:#FFFFFF;stroke-width:0.75;stroke-miterlimit:10;}
	.st7{fill:#DDDDDD;stroke:#FFFFFF;stroke-width:0.75;}
	.st8{fill:#078576;stroke:#FFFFFF;stroke-width:0.75;}
	.st9{fill:none;stroke:#231F20;}
	.st10{fill:#FFFFFF;}
</style>
<title>usa</title>
<path id="ar" class="st0" d="M591.3,358.7l-4,0.7l-5.1-0.6l0.4-1.6l3-2.6l0.9-3.7l-1.8-3l-78.4,2.5l1.6,6.9v8.2l1.4,11l0.2,37.8
	l2.3,1.9l3-1.4l2.7,1.1l0.7,6.6l55.6-1.1l1.2-2.1l-0.3-3.5l-1.8-3l1.6-1.5l-1.6-2.5l0.7-2.5l1.4-5.6l2.5-2.1l-0.7-2.3l3.7-5.4
	l2.7-1.4l-0.1-1.5l-0.3-1.8l2.9-5.6l2.4-1.3l-6,0.3l2-5.2l-1.2-3.2l3.7-2.4l0.3-2.9l1.6-4.3L591.3,358.7L591.3,358.7z"/>
<path id="hi" class="st1" d="M230.6,542l1.9-3.6l2.3-0.3l0.3,0.8L233,542H230.6z M240.8,538.3l6.1,2.6l2.1-0.3l1.6-3.9l-0.6-3.4
	l-4.2-0.5l-4,1.8L240.8,538.3L240.8,538.3z M271.5,548.3l3.7,5.5l2.4-0.3l1.1-0.5l1.5,1.3l3.7-0.2l1-1.5l-2.9-1.8l-1.9-3.7l-2.1-3.6
	l-5.8,2.9L271.5,548.3L271.5,548.3z M291.7,557.2l1.3-1.9l4.7,1l0.6-0.5l6.1,0.7l-0.3,1.3l-2.6,1.5l-4.4-0.3L291.7,557.2
	L291.7,557.2z M297,562.4l1.9,3.9l3.1-1.1l0.3-1.6l-1.6-2.1l-3.7-0.3L297,562.4L297,562.4z M304,561.2l2.3-2.9l4.7,2.4l4.4,1.1
	l4.4,2.8v1.9l-3.6,1.8l-4.9,1l-2.4-1.5L304,561.2z M320.6,576.8l1.6-1.3l3.4,1.6l7.6,3.6l3.4,2.1l1.6,2.4l1.9,4.4l4,2.6l-0.3,1.3
	l-3.9,3.2l-4.2,1.5l-1.5-0.7l-3.1,1.8l-2.4,3.2l-2.3,2.9l-1.8-0.2l-3.6-2.6l-0.3-4.5l0.6-2.4l-1.6-5.7l-2.1-1.8l-0.2-2.6l2.3-1
	l2.1-3.1l0.5-1l-1.6-1.8L320.6,576.8z"/>
<path id="ak" class="st2" d="M155.6,476.4l-0.3,85.4l1.6,1l3.1,0.2l1.4-1.1h2.6l0.2,2.9l6.9,6.8l0.5,2.6l3.4-1.9l0.6-0.2l0.3-3.1
	l1.4-1.6l1.1-0.2l1.9-1.5l3.1,2.1l0.6,2.9l1.9,1.1l1.1,2.4l3.9,1.8l3.4,6l2.8,3.9l2.3,2.8l1.4,3.7l5,1.8l5.2,2.1l1,4.4l0.5,3.1
	l-1,3.4l-1.8,2.3l-1.6-0.8l-1.4-3.1l-2.8-1.5l-1.8-1.1l-0.8,0.8l1.4,2.8l0.2,3.7l-1.1,0.5l-1.9-1.9l-2.1-1.3l0.5,1.6l1.3,1.8
	l-0.8,0.8l-1.3-1l-2.1-3.4l-1-2.3l-1,1l-1.3-1.5l1.8-1.9l-1.4-1.5v-5h-0.8l-0.8,3.4l-1.1,0.5l-1-3.7l-0.6-3.7l-0.8-0.5l0.3,5.7v1.1
	l-1.4-1.3l-3.6-6l-2.1-0.5l-0.6-3.7l-1.6-2.9l-1.6-1.1v-2.3l2.1-1.3l-0.5-0.3l-2.6,0.7l-3.4-2.4l-2.6-2.9l-4.9-2.6l-4-2.6l1.3-3.2
	v-1.9l-1.8,1.6l-2.9,1.1l-3.7-1.1l-5.7-2.4h-5.5l-0.6,0.5l-6.5-3.9l-2.1-0.3l-2.8-5.8l-3.6,0.3l-3.6,1.5l0.5,4.5l1.1-2.9l1,0.3
	l-1.4,4.4l3.2-2.8l0.6,1.6l-3.9,4.4l-1.3-0.3l-0.5-1.9l-1.3-0.8l-1.3,1.1l-2.8-1.8l-3.1,2.1l-1.8,2.1l-3.4,2.1l-4.7-0.2l-0.5-2.1
	l3.7-0.7V564l-2.3-0.7l1-2.4l2.3-3.9v-1.8l0.2-0.8l4.4-2.3l1,1.3h2.8l-1.3-2.6l-3.7-0.3l-5,2.8l-2.4,3.4l-1.8,2.6l-1.1,2.3l-4.2,1.5
	l-3.1,2.6l-0.3,1.6l2.3,1l0.8,2.1l-2.8,3.2l-6.5,4.2L80,582l-2.1,1.1l-5.3,1.1l-5.3,2.3l1.8,1.3l-1.4,1.5l-0.5,1.1l-2.8-1l-3.2,0.2
	l-0.8,2.3h-1l0.3-2.4l-3.6,1.3l-2.9,1l-3.4-1.3l-2.9,1.9h-3.2l-2.1,1.3l-1.6,0.8l-2.1-0.3l-2.6-1.1l-2.3,0.7l-1,1l-1.6-1.1v-1.9
	l3.1-1.3l6.3,0.7l4.4-1.6l2.1-2.1l2.9-0.7L51,586l2.8,0.2l1.6,1.3l1-0.3l2.3-2.8l3.1-1l3.4-0.7l1.3-0.3l0.7,0.5H68l1.3-3.7l4-1.5
	l1.9-3.7l2.3-4.5l1.6-1.5l0.3-2.6l-1.6,1.3l-3.4,0.7l-0.7-2.4l-1.3-0.3l-1,1l-0.2,2.9l-1.4-0.2l-1.4-5.8l-1.3,1.3l-1.1-0.5l-0.3-1.9
	l-4,0.2l-2.1,1.1l-2.6-0.3l1.5-1.5l0.5-2.6l-0.7-1.9l1.5-1l1.3-0.2l-0.7-1.8v-4.4l-1-1l-0.8,1.5h-6.1l-1.5-1.3l-0.7-3.9l-2.1-3.6v-1
	l2.1-0.8l0.2-2.3l1.1-1.1l-0.8-0.5l-1.3,0.5l-1.1-2.8l1-5l4.5-3.2l2.6-1.6l1.9-3.7l2.8-1.3l2.6,1.1l0.3,2.4l2.4-0.3l3.2-2.4l1.6,0.6
	l1,0.6h1.6l2.3-1.3l0.8-4.4l1-3.4l1-1l-1.1-1.9l-2.6,0.8l-3.2,0.8l-1.9-0.5l-3.6-1.8l-5-0.2l-3.6-3.7l0.5-3.9l0.7-2.4l-2.1-1.8
	l-1.9-3.7l0.5-0.8l6.8-0.5h2.1l1,1h0.7l-0.2-1.6l3.9-0.6l2.6,0.3l1.4,1.1l-1.4,2.1l-0.5,1.5l2.8,1.6l5,1.8l1.8-1l-2.3-4.4l-1-3.2
	l1-0.8l-3.4-1.9l-0.5-1.1l0.5-1.6l-0.8-3.9l-2.9-4.7l-2.4-4.2l2.9-1.9H76l1.8,0.6l4.2-0.2l3.7-3.6l1.1-3.1l3.7-2.4l1.6,1l2.8-0.6
	l3.7-2.1l1.1-0.2l1,0.8l4.5-0.2l2.8-3.1h1.1l3.6,2.4l1.9,2.1l-0.5,1.1l0.7,1.1l1.6-1.6l3.9,0.3l0.3,3.7l1.9,1.5l7.1,0.6l6.3,4.2
	l1.4-1l5.2,2.6l2.1-0.6l1.9-0.8l4.9,1.9L155.6,476.4L155.6,476.4z M40.5,505.3l2.1,5.3l-0.2,1l-2.9-0.3l-1.8-4l-1.8-1.5h-2.4
	l-0.2-2.6l1.8-2.4l1.1,2.4l1.5,1.5C37.7,504.7,40.5,505.3,40.5,505.3z M37.9,538.8l3.7,0.8l3.7,1l0.8,1l-1.6,3.7l-3.1-0.2l-3.4-3.6
	C38,541.5,37.9,538.8,37.9,538.8z M17.2,524.7l1.1,2.6l1.1,1.6l-1.1,0.8l-2.1-3.1v-1.9L17.2,524.7L17.2,524.7z M3.4,597.8l3.4-2.3
	l3.4-1l2.6,0.3l0.5,1.6l1.9,0.5l1.9-1.9l-0.3-1.6l2.8-0.7l2.9,2.6l-1.1,1.8l-4.4,1.1l-2.8-0.5l-3.7-1.1L6.1,598l-1.6,0.3L3.4,597.8
	L3.4,597.8z M52.4,593.3l1.6,1.9l2.1-1.6l-1.5-1.3L52.4,593.3L52.4,593.3z M55.3,596.3l1.1-2.3l2.1,0.3l-0.8,1.9L55.3,596.3
	C55.3,596.2,55.3,596.3,55.3,596.3z M78.9,594.4l1.4,1.8l1-1.1l-0.8-1.9L78.9,594.4z M87.7,581.9l1.1,5.8l2.9,0.8l5-2.9l4.4-2.6
	l-1.6-2.3l0.5-2.4l-2.1,1.3l-2.9-0.8l1.6-1.1l1.9,0.8l3.9-1.8l0.5-1.5l-2.4-0.8l0.8-1.9l-2.8,1.9l-4.7,3.6l-4.8,2.9L87.7,581.9z
	 M130,562.1l2.4-1.5l-1-1.8l-1.8,1L130,562.1L130,562.1z"/>
<path id="al" class="st1" d="M629.1,476.1l-1.5-14.3l-2.8-18.8l0.2-14.1l0.8-31l-0.2-16.6l0.2-6.4l44.3-4.5v3.1l0.2,2.1l0.7,3.4
	l3.4,7.9l2.4,9.9l1.5,6.1l1.6,4.9l1.5,7l2.1,6.3l2.6,3.4l0.5,3.4l1.9,0.8l0.2,2.1l-1.8,4.9l-0.5,3.2l-0.2,1.9l1.6,4.4l0.3,5.3
	l-0.8,2.4l0.7,0.8l1.5,0.8l0.3,2.9l-5.6-0.4l-6.8,0.6l-25.5,2.9l-10.4,1.4l-0.2,2.9l1.8,1.8l2.6,1.9l0.6,7.9l-5.5,2.6l-3-0.3
	l2.8-1.9v-1l-3.1-6l-2.3-0.6l-1.5,4.4l-1.3,2.8l-0.7-0.2L629.1,476.1L629.1,476.1z"/>
<g id="fl">
	<path class="st3" d="M769.4,587l3-0.9l1.2-0.2l1.4-2.2l2.5-1.8l1.5,0.6l1.8,0.3l0.6,1.6l-3.9,1.3l-4.2,1.5l-2.5,1.3L769.4,587
		L769.4,587z M783,582.2l2.9-1.9l3.4-1.9l4.3-4.1l3.1-5.2l0.7-2.2l-2.4,2.7l-3.2,1.6l-3.8,0.2l-1.5,1.5l-2.6,1.1l-1.5-0.6l-1.3-1.1
		l-0.3-3L780,566l-3.3-5.1l-3.5-2.2l-3.6-0.3l-1,1.6l-3.5-4.9l-0.7-3.6l-2.5-3.9l-1.4-0.9l-1.5,2l-2.2-0.4l-2.2-5.2l-2.9-3.8
		l-2.9-5.3l-2.6-3l-3.8-3.9l2.3-2.7l3.1-5.3l-0.2-1.2l-4.1-0.9l-1.1,0.4v0.1l2.8,1.1l-1.7,5l-1.3,0.8l-2-4.4l-1.3-5l-0.3-2.9
		l1.5-4.7v-9.3l-3-3.6l-1.2-3l-5-1.3l-2.1-0.6l-1.6-2.6l-3.4-1.6l-1.1-3.4l-2.7-1l-2.4-3.7l-4.1-1.5l-2.9-1.5h-2.1l-3.7,0.7
		l-0.2,1.5l0.8,1.1l-0.7,1.5l-3.2-0.2l-3.6,3.5l-3.7,2h-3.9l-3.6,1.5l-0.3-3.2l-1.5-1.7l-2.9-1.1l-1.6-1.5l-8-3.9l-7.5-1.8l-4.3,0.6
		l-6,0.5l-5.9,2.1l-4,0.7l-0.2-8.2l-2.5-1.8l-2-2l0.3-3.6l10.5-1.3l25.5-2.9l6.8-0.6l5.6,0.3l2.7,4.1l1.4,1.3l8,0.5l10.8-0.6
		l21.5-1.3l5.5-0.7l5.5,0.2l0.4,3l1.5,0.5l0.2-4l-1.6-4.3l1.6-1.7l5.7,0.5l5.7,0.7l2.4,7.5l3.7,9.7l5.3,9.3l3.7,6.3l4.8,5.4l4,3.7
		l1.8,3.2l-1.3,1.5l-0.7,1.1l2.8,7.2l2.9,2.9l2.6,5.4l3.6,5.8l4.5,8.3l1.3,7.7l0.5,12l0.7,1.8l-0.3,3.7l-2.3,1.3l0.3,1.7l-0.7,1.9
		l0.3,2.3l0.4,1.4l0.3-0.9l1-2.9l1.4-1l-0.3,4.3l-1,1.8l-2.5,6.6l-3.8,4l-5.3,4.2l-3,2.3L783,582.2L783,582.2z"/>
</g>
<path id="nh" class="st1" d="M878.3,158.1l0.9-1.1l1.1-3.3l-2.5-0.9l-0.5-3.1l-3.9-1.1l-0.3-2.8l-7.3-23.4l-4.6-14.5h-0.9l-0.7,1.6
	l-0.7-0.5l-1-1l-1.5,1.9v5l0.3,5.7l1.9,2.8v4l-3.7,5.1l-2.6,1.1v1.1l1.1,1.8v8.6l-0.8,9.2l-0.2,4.9l1,1.3l-0.2,4.5l-0.5,1.8l1,0.7
	l16.8-4.4l2.2-0.6l1.8-2.8L878.3,158.1L878.3,158.1z"/>
<g id="mi">
	<path class="st4" d="M695.4,192.9l-3.2-8.2l-2.3-9.1l-2.4-3.2l-2.6-1.8l-1.6,1.1l-3.9,1.8l-1.9,5l-2.8,3.7l-1.1,0.6l-1.5-0.6
		l-2.4-2.1l0.5-5l3.4-1.3l0.8-3.4l0.7-2.6l2.4-1.6l-0.3-10l-1.6-2.3l-1.3-0.8l-0.8-2.1l0.8-0.8l1.6,0.3l0.2-1.6l-2.6-2.2l-1.3-2.6
		h-2.6l-4.5-1.4l-5.5-3.4h-2.8l-0.7,0.7l-1-0.5l-3.1-2.3l-2.9,1.8l-2.9,2.3l0.3,3.6l1,0.3l2.1,0.5l0.5,0.8l-2.6,0.8l-2.6,0.3
		l-1.5,1.8l-0.3,2.1l0.3,1.6l0.3,5.5l-3.6,2.1l-0.7-0.2v-4.2l1.3-2.4l0.7-2.4l-0.8-0.8l-1.9,0.8l-1,4.2l-2.8,1.1l-1.8,1.9l-0.2,1
		l0.7,0.8l-0.7,2.6l-2.3,0.5v1.1l0.8,2.4l-1.1,6.1l-1.6,4l0.7,4.7l0.5,1.1l-0.8,2.4l-0.3,0.8l-0.3,2.8l3.6,6l2.9,6.5l1.5,4.9
		l-0.8,4.7l-1,6l-2.4,5.2l-0.3,2.8l-3.3,3.1l4.4-0.2l21.4-2.3l7.3-1l0.1,1.7l6.8-1.2l10.3-1.5l3.8-0.5l0.1-0.6l0.2-1.4l2.1-3.7
		l2-1.7l-0.2-5.1l1.6-1.6l1.1-0.3l0.2-3.6l1.5-3l1,0.6l0.2,0.6l0.8,0.2l1.9-1L695.4,192.9L695.4,192.9z"/>
	<path class="st4" d="M579.1,97.8l1.8-2.1l2.2-0.8l5.4-3.9l2.3-0.6l0.5,0.5l-5.1,5.1l-3.3,1.9l-2.1,0.9L579.1,97.8L579.1,97.8z
		 M665.3,129.9l0.7,2.5l3.2,0.2l1.3-1.2l-0.4-1.6l-1.6-1.9l-2.2,0.2l-1.6,0.2l-0.3,1.1L665.3,129.9L665.3,129.9z M565,126.9l0.7-0.6
		l2.8-0.8l3.6-2.3v-1l0.7-0.7l6-1l2.4-1.9l4.4-2.1l0.2-1.3l1.9-2.9l1.8-0.8l1.3-1.8l2.3-2.3l4.4-2.4l4.7-0.5l1.1,1.1l-0.3,1l-3.7,1
		l-1.5,3.1l-2.3,0.8l-0.5,2.4l-2.4,3.2l-0.3,2.6l0.8,0.5l1-1.1l3.6-2.9l1.3,1.3h2.3l3.2,1l1.5,1.1l1.5,3.1l2.8,2.8l3.9-0.2l1.5-1
		l1.6,1.3l1.6,0.5l1.3-0.8h1.1l1.6-1l4-3.6l3.4-1.1l6.6-0.3l4.5-1.9l2.6-1.3l1.5,0.2v5.7l0.5,0.3l2.9,0.8l1.9-0.5l6.1-1.6l1.1-1.1
		l1.5,0.5v6.9l3.2,3.1l1.3,0.7l1.3,1l-1.3,0.3l-0.8-0.3l-3.7-0.5l-2.1,0.7l-2.3-0.2l-3.2,1.4h-1.8l-5.8-1.3l-5.2,0.2l-1.9,2.6
		l-7,0.7l-2.4,0.8l-1.1,3.1l-1.3,1.1l-0.5-0.2l-1.5-1.6l-4.5,2.4h-0.7l-1.1-1.6l-0.8,0.2l-1.9,4.4l-1,4l-3.2,7l-1.2-1l-1.4-1
		l-1.9-10.3l-3.5-1.4l-2-2.3l-12.1-2.7l-2.9-1l-8.2-2.2l-7.9-1.1L565,126.9L565,126.9z"/>
</g>
<path id="vt" class="st1" d="M842,169.8l0.3-5.4l-2.9-10.8l-0.7-0.3l-2.9-1.3l0.8-2.9l-0.8-2.1l-2.7-4.6l1-3.9l-0.8-5.2l-2.4-6.5
	l-0.8-4.9l26.4-6.7l0.3,5.5l1.9,2.7v4l-3.7,5.1l-2.6,1.1v1.1l1.3,1.5l-0.3,8.1l-0.6,9.3l-0.2,5.6l1,1.3l-0.2,4.6l-0.5,1.7l1,0.7
	l-7.4,1.5L842,169.8L842,169.8z"/>
<path id="me" class="st1" d="M920.3,94.5l1.9,2.1l2.3,3.7v1.9l-2.1,4.7l-1.9,0.6l-3.4,3.1l-4.8,5.5H911l-1-2.1l-1.8,0.2l-1,1.4
	l-2.4,1.4l-1,1.4l1.6,1.4l-0.5,0.7l-0.5,2.8l-1.9-0.2v-1.4l-0.3-1.3l-1.5,0.3l-1.8-3.2l-2.1,1.3l1.3,1.4l0.3,1.1l-0.8,1.3l0.3,3.1
	l0.2,1.6l-1.6,2.6l-2.9,0.5l-0.3,2.9l-5.3,3.1l-1.3,0.5l-1.6-1.4l-3.1,3.6l1,3.2l-1.5,1.3l-0.2,4.4l-1.1,6.3l-2.5-1.2l-0.5-3.1
	l-3.7-1.3l-0.3-2.8l-7.3-23.4l-4.7-14.6l1.4-0.1l1.5,0.4v-2.6l1.3-4.5l2.6-4.7l1.5-4l-1.9-2.4v-6l0.8-1l0.8-2.8l-0.2-1.5l-0.2-4.8
	l1.8-4.8l2.9-8.9l2.1-4.2h1.3l1.3,0.2v1.1l1.3,2.3l2.8,0.7l0.8-0.8v-1l4-2.9l1.8-1.8l1.5,0.2l6,2.4l1.9,1l9,29.9h6l0.8,1.9l0.2,4.8
	l2.9,2.3h0.8l0.2-0.5l-0.5-1.1L920.3,94.5L920.3,94.5z M899.4,124.7l1.5-1.5l1.4,1.1l0.6,2.4l-1.7,0.9L899.4,124.7z M906.1,118.8
	l1.8,1.9l1.3-0.2l0.2-2l0.9-0.8l-0.8-1.8l-2,0.7C907.5,116.6,906.1,118.8,906.1,118.8z"/>
<path id="ri" class="st5" d="M871.6,194.6l-3.7-15l6.3-1.9l2.2,1.9l3.3,4.3l2.7,4.4l-3,1.6l-1.3-0.2l-1.1,1.8l-2.4,1.9L871.6,194.6z
	"/>
<path id="ny" class="st1" d="M827.9,204.5l-1.1-1l-2.6-0.2l-2.3-1.9l-1.6-6.1l-3.5,0.1l-2.4-2.7l-19.4,4.4l-43,8.7l-7.5,1.2
	l-0.7-6.5l1.4-1.1l1.3-1.1l1-1.6l1.8-1.1l1.9-1.8l0.5-1.6l2.1-2.8l1.1-1l-0.2-1l-1.3-3.1l-1.8-0.2l-1.9-6.1l2.9-1.8l4.4-1.4l4-1.3
	l3.2-0.5l6.3-0.2l1.9,1.3l1.6,0.2l2.1-1.3l2.6-1.1l5.2-0.5l2.1-1.8l1.8-3.2l1.6-1.9h2.1l1.9-1.1l0.2-2.3l-1.5-2.1l-0.3-1.4l1.1-2.1
	v-1.4h-1.8l-1.8-0.8l-0.8-1.1l-0.2-2.6l5.8-5.5l0.7-0.8l1.5-2.9l2.9-4.5l2.8-3.7l2.1-2.4l2.4-1.8l3.1-1.3l5.5-1.3l3.2,0.2l4.5-1.4
	l7.6-2.1l0.5,5l2.4,6.5l0.8,5.2l-1,3.9l2.6,4.5l0.8,2.1l-0.8,2.9l2.9,1.3l0.7,0.3l3.1,11l-0.5,5.1l-0.5,10.8l0.8,5.5l0.8,3.6
	l1.5,7.3v8.1l-1.1,2.3l1.8,2l0.8,1.7l-1.9,1.8l0.3,1.3l1.3-0.3l1.5-1.3l2.3-2.6l1.1-0.6l1.6,0.6l2.3,0.2l7.9-3.9l2.9-2.8l1.3-1.4
	l4.2,1.6l-3.4,3.6l-3.9,2.3l-7.1,5.3l-2.6,1l-5.8,1.9l-4,1.1l-1.2-0.5l-0.2-3.7l0.5-2.8l-0.2-2.1l-2.8-1.7l-4.5-1l-3.9-1.1
	L827.9,204.5L827.9,204.5z"/>
<path id="pa" class="st1" d="M822.6,240.4l1.3-0.3l2.3-1.3l1.2-2.5l1.6-2.3l3.2-3.1v-0.8l-2.4-1.6l-3.6-2.4l-1-2.6l-2.8-0.3
	l-0.2-1.1l-0.8-2.8l2.3-1.1l0.2-2.4l-1.3-1.3l0.2-1.6l1.9-3.1v-3.1l2.7-2.6l-0.9-0.7l-2.5-0.2l-2.3-1.9l-1.5-6.1l-3.5,0.1l-2.5-2.7
	l-18.1,4.2l-43,8.7l-8.9,1.4l-0.6-6.5l-5.4,5.1l-1.3,0.5l-4.2,3l2.9,19.1l2.5,9.7l3.6,19.3l3.3-0.6l11.9-1.5l37.9-7.7l14.9-2.8
	l8.3-1.6l0.3-0.2l2.1-1.6L822.6,240.4L822.6,240.4z"/>
<path id="nj" class="st1" d="M827.2,204.2l-2.3,2.7v3.1l-1.9,3.1l-0.2,1.6l1.3,1.3l-0.2,2.4l-2.3,1.1l0.8,2.8l0.2,1.1l2.8,0.3l1,2.6
	l3.6,2.4l2.4,1.6v0.8l-3,2.7l-1.6,2.3l-1.5,2.8l-2.3,1.3l-0.5,1.5l-0.2,1.2l-0.6,2.6l1.1,2.2l3.2,2.9l4.8,2.3l4,0.6l0.2,1.4l-0.8,1
	l0.3,2.8h0.8l2.1-2.4l0.8-4.9l2.8-4l3.1-6.5l1.1-5.5l-0.7-1.1l-0.2-9.4l-1.6-3.4l-1.1,0.8l-2.8,0.3l-0.5-0.5l1.1-1l2.1-1.9l0.1-1.1
	l-0.4-3.4l0.6-2.8l-0.1-2l-2.8-1.8l-5.1-1.2l-4.1-1.4L827.2,204.2L827.2,204.2z"/>
<path id="de" class="st1" d="M823.1,244l0.4-2.1l0.4-1.7l-1.6,0.4l-1.6,0.5l-2.2,1.8l1.7,5l2.3,5.7l2.1,9.7l1.6,6.3l5-0.2l6.1-1.2
	l-2.3-7.4l-1,0.5l-3.6-2.4l-1.8-4.7l-1.9-3.6l-3.2-2.9l-0.9-2.1L823.1,244L823.1,244z"/>
<path id="md" class="st1" d="M837.3,268.1l-6,1.2l-5.1,0.1l-1.8-6.9l-1.9-9.2l-2.6-6.2l-1.3-4.4l-7.5,1.6l-14.9,2.8l-37.5,7.6l1.1,5
	l1,5.7l0.3-0.3l2.1-2.4l2.3-2.6l2.4-0.6l1.5-1.4l1.8-2.6l1.3,0.6l2.9-0.3l2.6-2.1l2-1.4l1.8-0.5l1.6,1.1l2.9,1.4l1.9,1.8l1.2,1.5
	l4.1,1.7v2.9l5.5,1.3l1.1,0.5l1.4-2l2.9,2l-1.3,2.5l-0.8,4l-1.8,2.6v2.1l0.7,1.8l5.1,1.4l4.3-0.1l3.1,1l2.1,0.3l1-2.1l-1.5-2.1v-1.8
	l-2.4-2.1l-2.1-5.5l1.3-5.3l-0.2-2.1l-1.3-1.3l1.5-2.3l0.5-2.1l1.9-1.3l1.9-1.6l0.5,1l-1.5,1.6l-1.3,3.7l0.3,1.1l1.8,0.3l0.5,5.5
	l-2.1,1l0.3,3.6l0.5-0.2l1.1-1.9l1.6,1.8l-1.6,1.3l-0.3,3.4l2.6,3.4l3.9,0.5l1.6-0.8l3.2,4.2l1.4,0.5l6.7-2.8l2-4L837.3,268.1
	L837.3,268.1z M821.3,277.1l1.1,2.5l0.2,1.8l1.1,1.9l0.9-1.2l-0.7-3.1l-0.7-2.3L821.3,277.1L821.3,277.1z"/>
<path id="va" class="st1" d="M829.1,281.8l-0.1-2l6.5-2.5l-0.8,3.2l-2.9,3.8l-0.4,4.6l0.5,3.4l-1.8,5l-2.2,1.9l-1.5-4.6l0.5-5.5
	l1.6-4.2L829.1,281.8L829.1,281.8z M832.5,310.1l-58.2,12.6l-37.4,5.3l-6.7-0.4l-2.6,1.9l-7.3,0.2l-8.4,1l-10.9,1.6l10.5-5.6v-2.1
	l1.5-2.1l10.5-11.5l4,4.5l3.8,1l2.5-1.1l2.2-1.3l2.5,1.3l3.9-1.4l1.9-4.6l2.6,0.5l2.9-2.1l1.8,0.5l2.8-3.7l0.3-2.1l-1-1.3l1-1.9
	L760,287l0.6-5.7l1.2-0.5l2.2,2.4l3.9-0.3l1.9-7.6l2.8-0.6l1-2.7l2.6-2.4l2.8-5.7l0.1-5.1l9.8,3.8l0.8-5.1l3.7,1.6l0.1,2.9l5.8,1.3
	l2.1,1.2l1.7,2.1l-0.7,3.6l-2,2.6l0.1,2.1l0.6,1.9l5,1.3h4.5l3.1,1l1.9,0.3l0.7,3.1l3.2,0.4l0.9,1.2l-0.4,4.7l1.4,1.1l-0.5,1.9
	l1.2,0.8l-0.2,1.4l-2.7-0.1l0.1,1.6l2.3,1.5l0.1,1.4l1.8,1.8l0.5,2.5l-2.5,1.4l1.6,1.5l5.8-1.7L832.5,310.1L832.5,310.1z"/>
<path id="wv" class="st1" d="M758.5,254.9l1.1,4.9l1.1,6l2.1-2.6l2.3-3.1l2.5-0.6l1.5-1.4l1.8-2.6l1.5,0.6l2.9-0.3l2.6-2.1l2-1.4
	l1.8-0.5l1.3,1l3.6,1.8l1.9,1.8l1.4,1.3l-0.8,5.6l-5.8-2.5l-4.3-1.6l-0.1,5.2l-2.8,5.5l-2.5,2.4l-1.2,2.8l-2.6,0.5l-0.9,3.6l-1,4
	l-4,0.3l-2.3-2.4l-1.1,0.6l-0.6,5.5l-1.3,3.5l-5,11l0.9,1.2l-0.2,1.9l-2.8,3.9l-1.8-0.5l-3,2.2l-2.5-0.6l-2,4.6l-3.9,1.4l-2.5-1.3
	l-2.3,1.4l-2.4,1l-3.7-0.9l-1.1-1.2l-2.2-3l-3.1-2l-1.7-3.6l-4.3-3.5l-0.7-2.3l-2.6-1.5l-0.8-1.6l-0.2-5.3l2.2-0.1l1.9-0.8l0.2-2.8
	l1.6-1.5l0.2-5l1-3.9l1.3-0.6l1.3,1.1l0.5,1.8l1.8-1l0.5-1.6l-1.1-1.8v-2.4l1-1.3l2.3-3.4l1.3-1.4l2.1,0.5l2.3-1.6l3.1-3.4l2.3-3.9
	l0.3-5.7l0.5-5v-4.7l-1.1-3.1l1-1.4l1.3-1.3l3.5,19.8l4.6-0.8L758.5,254.9L758.5,254.9z"/>
<path id="oh" class="st1" d="M732.8,209l-6.1,4.1l-3.9,2.3l-3.4,3.7l-4,3.9l-3.2,0.8l-2.9,0.5l-5.5,2.6l-2.1,0.2l-3.4-3.1l-5.2,0.6
	l-2.6-1.4l-2.4-1.4l-4.9,0.7l-10.2,1.6l-11.2,2.2l1.3,14.6l1.8,13.7l2.6,23.4l0.6,4.8l4.1-0.1l2.4-0.8l3.4,1.5l2.1,4.4h5.1l1.9,2.1
	l1.8-0.1l2.5-1.3l2.5,0.4l5.4,0.5l1.7-2.1l2.3-1.3l2.1-0.7l0.7,2.8l1.8,1l3.5,2.3l2.2-0.1l1.3-0.5l0.2-2.8l1.6-1.5l0.1-4.8l1-4.1
	l1.3-0.6l1.3,1.1l0.5,1.7l1.7-1l0.4-1.5l-1.1-1.9l0.1-2.3l0.8-1.1l2.2-3.3l1-1.5l2.1,0.5l2.3-1.6l3.1-3.4l2.8-4.1l0.3-5.1l0.5-5
	l-0.2-5.3l-1-2.9l0.3-1.2l1.8-1.8l-2.3-9.1L732.8,209L732.8,209z"/>
<path id="in" class="st1" d="M617.1,315.7l0.1-2.9l0.5-4.5l2.3-2.9l1.8-3.9l2.6-4.2l-0.5-5.8l-1.8-2.8l-0.3-3.2l0.8-5.5l-0.5-7
	l-1.3-16l-1.3-15.4l-1-11.7l3.1,0.9l1.5,1l1.1-0.3l2.1-1.9l2.8-1.6l5.1-0.2l22-2.3l5.6-0.5l1.5,16l4.3,36.8l0.6,5.8l-0.4,2.3
	l1.2,1.8l0.1,1.4l-2.5,1.6l-3.5,1.5l-3.2,0.5l-0.6,4.9l-4.6,3.3l-2.8,4l0.3,2.4l-0.6,1.5h-3.3l-1.6-1.6l-2.5,1.3l-2.7,1.5l0.2,3
	l-1.2,0.3l-0.5-1l-2.2-1.5l-3.3,1.3l-1.5,3l-1.4-0.8l-1.5-1.6l-4.5,0.5l-5.6,1L617.1,315.7L617.1,315.7z"/>
<path id="il" class="st4" d="M617,316v-3.2l0.6-4.6l2.3-2.9l1.9-4.1l2.2-4l-0.4-5.3l-2-3.5l-0.1-3.4l0.7-5.3l-0.8-7.2l-1.1-15.8
	l-1.3-15l-0.9-11.6l-0.3-0.9l-0.8-2.6l-1.3-3.7l-1.6-1.8l-1.5-2.6l-0.2-5.5l-45.8,2.6l0.2,2.4l2.3,0.7l0.9,1.1l0.5,1.8l3.9,3.4
	l0.7,2.3l-0.7,3.4l-1.8,3.7l-0.7,2.5l-2.3,1.8l-1.8,0.7l-5.3,1.4l-0.7,1.8l-0.7,2.1l0.7,1.4l1.8,1.6l-0.2,4.1l-1.8,1.6l-0.7,1.6v2.7
	l-1.8,0.5l-1.6,1.1l-0.2,1.4l0.2,2.1l-1.7,1.3l-1,2.8l0.5,3.7l2.3,7.3l7.3,7.5l5.5,3.7l-0.2,4.3l0.9,1.4l6.4,0.5l2.7,1.4l-0.7,3.7
	l-2.3,5.9l-0.7,3.2l2.3,3.9l6.4,5.3l4.6,0.7l2.1,5l2.1,3.2l-0.9,3l1.6,4.1l1.8,2.1l1.4-0.9l0.9-2.1l2.2-1.8l2.1-0.6l2.6,1.2l3.6,1.4
	l1.2-0.3l0.2-2.3l-1.3-2.4l0.3-2.4l1.8-1.4l3-0.8l1.3-0.5l-0.6-1.4l-0.8-2.4l1.4-1L617,316L617,316z"/>
<path id="ct" class="st1" d="M871.6,194.6l-3.7-14.9l-4.7,0.9l-21.2,4.7l1,3.2l1.5,7.3l0.2,9l-1.2,2.2l1.9,1.9l4.3-3.9l3.6-3.2
	l1.9-2.1l0.8,0.6l2.8-1.4l5.2-1.1L871.6,194.6L871.6,194.6z"/>
<path id="wi" class="st6" d="M612.6,213.1l-0.1-3.2l-1.2-4.5l-0.7-6.1l-1.1-2.4l1-3.1l0.8-2.9l1.5-2.6l-0.7-3.4l-0.7-3.6l0.5-1.8
	l1.9-2.4l0.2-2.8l-0.8-1.3l0.7-2.6l-0.5-4.2l2.8-5.7l2.9-6.8l0.2-2.3l-0.3-1l-0.8,0.5l-4.2,6.3l-2.8,4l-1.9,1.8l-0.8,2.3l-2,0.8
	l-1.1,1.9l-1.5-0.3l-0.2-1.8l1.3-2.4l2.1-4.7l1.8-1.6l1-2.4l-2.6-1.9l-2-10.4l-3.5-1.3l-2-2.3l-12.1-2.7l-2.9-1l-8.2-2.2l-7.9-1.2
	l-3.8-5.1l-0.8,0.6l-1.2-0.2l-0.7-1.1l-1.3,0.3l-1.1,0.2l-1.8,1l-1-0.7l0.7-1.9l1.9-3.1l1.1-1.1l-1.9-1.4l-2.1,0.8l-2.9,1.9
	l-7.4,3.2l-2.9,0.7l-2.9-0.5l-1-0.9l-2.1,2.8l-0.2,2.7v8.5l-1.1,1.6l-5.3,3.9l-2.3,5.9l0.5,0.2l2.5,2.1l0.7,3.2l-1.8,3.2v3.9
	l0.5,6.6l3,3h3.4l1.8,3.2l3.4,0.5l3.9,5.7l7.1,4.1l2.1,2.7l0.9,7.4l0.7,3.3l2.3,1.6l0.2,1.4l-2.1,3.4l0.2,3.2l2.5,3.9l2.5,1.1l3,0.5
	l1.3,1.4L612.6,213.1L612.6,213.1z"/>
<path id="nc" class="st1" d="M832.7,309.6l2.1,4.9l3.6,6.5l2.4,2.4l0.7,2.3l-2.4,0.2l0.8,0.6l-0.3,4.2L837,332l-0.7,2.1L835,337
	l-3.7,1.6l-2.4-0.3l-1.5-0.2l-1.6-1.3l0.3,1.3v1h1.9l0.8,1.3l-1.9,6.3h4.2l0.7,1.6l2.3-2.3l1.3-0.5l-1.9,3.6l-3.1,4.9h-1.3l-1.1-0.5
	l-2.8,0.6l-5.2,2.4l-6.5,5.3l-3.4,4.7l-1.9,6.5l-0.5,2.4l-4.7,0.5l-5.5,1.3l-10-8.2l-12.6-7.6l-2.9-0.8l-12.6,1.5l-4.3,0.8l-1.6-3.2
	l-3-2.1l-16.5,0.5l-7.3,0.8l-9,4.5l-6.1,2.6l-21,2.2l-0.3-2.9l1.9-1.5l2.5-0.9l1-3.9l4.8-3l3.9-1.5l4.2-3.6l3.8-1.5l0.4-3.3l4.1-3.9
	l1.3-0.2l1.3,0.4l1.6,0.6l1.4-3.3l3.2-1.3l1.9,0.7l1-3.1l3.8-3.5l0.2-1.6l0.5-3.4l4.2-0.2l7.2-0.9l15.8-2.3l15.1-2.1l21.6-4.7
	l20-4.3l11.2-2.4L832.7,309.6L832.7,309.6z M837,342.8l2.6-2.5l3.2-2.6l1.5-0.6l0.2-2l-0.7-6.1l-1.5-2.3l-0.7-1.9l0.7-0.2l2.8,5.5
	l0.4,4.5l-0.2,3.4l-3.4,1.5l-2.8,2.4l-1.1,1.2L837,342.8z"/>
<path id="dc" class="st5" d="M803.3,266.5l-1.8-1.8l-1.2-0.7l1.4-2l2.9,1.9L803.3,266.5L803.3,266.5z"/>
<path id="ma" class="st1" d="M897.1,189l2.2-0.7l0.5-1.7l1,0.1l1,2.3l-1.3,0.5l-3.9,0.1L897.1,189L897.1,189z M887.8,189.8l2.3-2.6
	h1.6l1.8,1.5l-2.4,1l-2.2,1L887.8,189.8L887.8,189.8z M853,167.8l17.7-4.6l2.3-0.6l1.9-2.8l3.7-1.7l2.9,4.4l-2.4,5.2l-0.3,1.4
	l1.9,2.6l1.1-0.8h1.8l2.3,2.6l3.9,6l3.6,0.5l2.3-1l1.8-1.8l-0.8-2.8l-2.1-1.6l-1.5,0.8l-1-1.3l0.5-0.5l2.1-0.2l1.8,0.8l1.9,2.4
	l1,2.9l0.3,2.4l-4.2,1.4l-3.9,1.9l-3.9,4.5l-1.9,1.4v-1l2.4-1.4l0.5-1.8l-0.8-3.1l-2.9,1.4l-0.8,1.4l0.5,2.3l-2.1,1l-2.8-4.5
	l-3.4-4.4l-2.1-1.8l-6.5,1.9l-5.3,1.4l-20.7,4.6l-0.7-4.8l0.7-10.6l4.3-0.9L853,167.8L853,167.8z"/>
<path id="mo" class="st4" d="M555.9,263.8l-2.5-3.1l-1.1-2.3l-64.4,2.4l-2.3,0.1l1.3,2.5l-0.2,2.3l2.5,3.9l3.1,4.1l3.1,2.7l2.2,0.2
	l1.5,0.9v3l-1.8,1.6l-0.5,2.3l2.1,3.4l2.5,3l2.5,1.8l1.4,11.7l0.3,36.1l0.2,4.7l0.5,5.4l22.4-0.9l23.2-0.7l20.8-0.8l11.7-0.2
	l2.2,3.4l-0.7,3.3l-3.1,2.4l-0.6,1.8l5.4,0.5l3.9-0.7l1.7-5.5l1.1-6.4l1.7-2.1l2.6-1.5v-3l1-1.9l-1.7-2.5l-1.3,1l-2-2.2l-1.3-4.8
	l0.8-2.5l-1.9-3.4l-1.8-4.6l-4.8-0.8l-7-5.6l-1.7-4.1l0.8-3.2l2.1-6.1l0.5-2.9l-2-1l-6.9-0.8l-1-1.7l-0.1-4.2l-5.5-3.4l-7-7.8
	l-2.3-7.3l-0.2-4.2L555.9,263.8L555.9,263.8z"/>
<path id="ga" class="st1" d="M669.4,370.9v2.5l0.2,2.1l0.7,3.4l3.4,7.9l2.4,9.9l1.5,6.1l1.6,4.9l1.5,7l2.1,6.3l2.6,3.4l0.5,3.4
	l1.9,0.8l0.2,2.1l-1.8,4.9l-0.5,3.2l-0.2,1.9l1.6,4.4l0.3,5.3l-0.8,2.4l0.7,0.8l1.5,0.8l0.2,3.2l2.2,3.4l2.3,2.2l7.9,0.2l10.8-0.6
	l21.5-1.3l5.5-0.7h4.6l0.2,2.9l2.6,0.8l0.3-4.4l-1.6-4.5l1.1-1.6l5.8,0.8l5,0.3l-0.8-6.3l2.3-10l1.5-4.2l-0.5-2.6l3.3-6.2l-0.5-1.4
	l-1.9,0.7l-2.6-1.3l-0.7-2.1l-1.3-3.6l-2.3-2.1l-2.6-0.6l-1.6-4.9l-2.9-6.3l-4.2-1.9l-2.1-1.9l-1.3-2.6l-2.1-1.9l-2.3-1.3l-2.3-2.9
	l-3.1-2.3l-4.5-1.8l-0.5-1.5l-2.4-2.9l-0.5-1.5l-3.4-5l-3.5,0.1l-3.8-2.4l-1.4-1.3l-0.3-1.8l0.9-1.9l2.2-1.1l-0.6-2.1l-40.1,4
	l-1,0.4L669.4,370.9L669.4,370.9z"/>
<path id="sc" class="st1" d="M762.4,423.9l-1.8,1l-2.6-1.3l-0.7-2.1l-1.3-3.6l-2.3-2.1l-2.6-0.6l-1.6-4.9l-2.8-6l-4.2-1.9l-2.1-1.9
	l-1.3-2.6L737,396l-2.3-1.3l-2.3-2.9l-3.1-2.3l-4.5-1.8l-0.5-1.5l-2.4-2.9l-0.5-1.5l-3.4-5.2l-3.4,0.2l-4-2.4l-1.3-1.3l-0.3-1.8
	l0.8-1.9l2.3-1l-0.5-2.3l5.8-2.3l9.1-4.6l7.8-0.8l16.1-0.4l2.6,1.9l1.7,3.4l4.3-0.6l12.6-1.5l2.9,0.8l12.6,7.6l10.4,8.1l-5.4,5.5
	l-2.6,6.1l-0.5,6.3l-1.6,0.8l-1.1,2.8l-2.4,0.6l-2.1,3.6l-2.8,2.8l-2.3,3.4l-1.6,0.8l-3.6,3.3l-2.9,0.2l1,3.2l-5,5.5L762.4,423.9
	L762.4,423.9z"/>
<path id="ky" class="st4" d="M723.5,311l-2.3,2.4l-3.6,4l-4.9,5.5l-1.2,1.7l-0.1,2.1l-4.4,2.2l-5.7,3.4l-7.2,1.8l-51.9,4.9
	l-15.7,1.7l-4.6,0.5H618l-0.2,4.2l-8.2,0.1l-7,0.6l-7.8,0.1l1-1.5l2.5-1.5l0.2-3.2l0.9-1.8l-1.6-2.5l0.8-1.9l2.3-1.8l2.1-0.6
	l2.8,1.3l3.6,1.3l1.1-0.3l0.2-2.3l-1.3-2.4l0.3-2.3l1.9-1.5l2.6-0.6l1.6-0.6l-0.8-1.8l-0.7-1.9l1.5-1l1.2-3.7l3-1.5l5.3-1l4.5-0.5
	l1.4,1.6l1.5,0.9l1.6-3.1l3.2-1.3l2.2,1.5l0.4,1l1.2-0.3l-0.2-3l3.1-1.8l2.2-1.1l1.5,1.7h3.3l0.6-1.6l-0.4-2.3l2.6-4l4.8-3.4
	l0.7-4.8l2.9-0.5l3.8-1.6l2.4-1.7l-0.2-1.6l-1.1-1.5l0.6-3l4.2-0.1l2.3-0.8l3.3,1.4l2,4.4h5.1l2,2.2l1.6-0.1l2.6-1.3l5.2,0.6
	l2.6,0.2l1.7-2.1l2.6-1.4l1.9-0.7l0.7,2.8l2,1.1l2.6,2.1l0.1,5.7l0.8,1.6l2.6,1.6l0.8,2.3l4.2,3.4l1.8,3.6L723.5,311L723.5,311z"/>
<path id="la" class="st1" d="M605.5,474.9l-3.3-3.2l1-5.5l-0.7-0.9l-9.3,1l-25,0.5l-0.7-2.4l0.9-8.5l3.3-6l5-8.7l-0.6-2.4l1.3-0.7
	l0.5-2l-2.3-2.1l-0.1-1.9l-1.8-4.4l-0.2-6.3l-55.5,0.9v9.6l0.7,9.4l0.7,3.9l2.5,4.1l0.9,5l4.3,5.5l0.2,3.2l0.7,0.7l-0.7,8.5l-3,5
	l1.6,2.1l-0.7,2.5l-0.7,7.3l-1.4,3.2l0.1,3.6l4.7-1.5l12.1,0.2l10.3,3.6l6.5,1.1l3.7-1.5l3.2,1.1l3.2,1l0.8-2.1l-3.2-1.1l-2.6,0.5
	l-2.8-1.6l0.8-1.5l3.1-1l1.8,1.5l1.8-1l3.2,0.6l1.5,2.4l0.3,2.3l4.5,0.3l1.8,1.8l-0.8,1.6l-1.3,0.8l1.6,1.6l8.4,3.6l3.6-1.3l1-2.4
	l2.6-0.6l1.8-1.5l1.3,1l0.8,2.9l-2.3,0.8l0.7,0.6l3.4-1.3l2.3-3.4l0.8-0.5l-2.1-0.3l0.8-1.6l-0.2-1.5l2.1-0.5l1.1-1.3l0.7,0.8
	l0.7,3.1l4.2,0.6l4,1.9l1,1.5h2.9l1.1,1l2.3-3.1V502h-1.3l-3.4-2.8l-5.8-0.8l-3.2-2.3l1.1-2.8l2.3,0.3l0.2-0.6l-1.8-1v-0.5h3.2
	l1.8-3.1l-1.3-1.9l-0.3-2.8l-1.5,0.2l-1.9,2.1l-0.7,2.6l-3.1-0.6l-1-1.8l1.8-1.9l1.9-3.5l-1.1-2.4L605.5,474.9L605.5,474.9z"/>
<path id="ms" class="st1" d="M629.1,475l-0.3,1.3h-5.2l-1.5-0.8l-2.1-0.3l-6.8,1.9l-1.8-0.8l-2.6,4.2l-1.1,0.8l-1.1-2.5l-1.1-3.9
	l-3.4-3.2l1.1-5.5l-0.7-0.9l-1.8,0.2l-7.9,0.9l-24.5,0.4l-0.8-2.2l0.9-8.4l3.1-5.7l5.2-9.1l-0.5-2.4l1.2-0.7l0.4-1.9l-2.3-2.1
	l-0.1-2.1l-1.8-4.1l-0.1-6l1.3-2.5l-0.2-3.4l-1.8-3.1l1.5-1.5l-1.6-2.5l0.5-1.6l1.6-6.5l2.5-2l-0.6-2.4l3.7-5.3l2.8-1.4l-0.2-1.7
	l-0.3-1.7l2.9-5.6l2.3-1.2l0.2-0.9l37.3-3.9l0.2,6.3l0.2,16.6l-0.8,31l-0.2,14.1l2.8,18.8L629.1,475L629.1,475z"/>
<path id="ia" class="st1" d="M566.7,215.3l0.3,2.8l2.2,0.6l1,1.2l0.5,1.9l3.8,3.4l0.7,2.4l-0.7,3.4l-1.6,3.2l-0.8,2.7l-2.2,1.6
	l-1.7,0.6l-5.6,1.9l-1.4,3.9l0.7,1.4l1.8,1.7l-0.3,4l-1.8,1.5l-0.8,1.6l0.1,2.8l-1.9,0.5l-1.6,1.1l-0.3,1.4l0.3,2.1l-1.5,1.1
	l-2.5-3.1l-1.3-2.4l-65.7,2.5l-0.9,0.2l-2-4.5l-0.2-6.6l-1.6-4.1l-0.7-5.3l-2.3-3.7l-0.9-4.8l-2.7-7.5l-1.1-5.4l-1.4-2.2l-1.6-2.7
	l2-4.8l1.4-5.7l-2.7-2.1l-0.5-2.7l0.9-2.5h1.7l82.6-1.3l0.8,4.2l2.3,1.6l0.3,1.4l-2,3.4l0.2,3.2l2.5,3.8l2.5,1.3l3.1,0.5
	L566.7,215.3L566.7,215.3z"/>
<path id="mn" class="st6" d="M473,144.5l-0.5-8.5l-1.7-7.3l-1.8-13.5l-0.5-9.8l-1.8-3.4l-1.6-5V86.7l0.7-3.9l-1.8-5.5h30.1l0.3-8.2
	l0.6-0.2l2.3,0.5l1.9,0.8l0.8,5.5l1.5,6.1l1.6,1.6h4.9l0.3,1.4l6.3,0.3v2.1h4.8l0.3-1.3l1.1-1.1l2.3-0.7l1.3,1h2.9l3.9,2.6l5.3,2.4
	l2.4,0.5l0.5-1l1.5-0.5l0.5,2.9l2.6,1.3l0.5-0.5l1.3,0.2v2.1l2.6,1h3.1l1.6-0.8l3.2-3.2l2.6-0.5l0.8,1.8l0.5,1.3h1l1-0.8l8.9-0.3
	l1.8,3.1h0.7l0.7-1.1l4.4-0.4l-0.6,2.3l-3.9,1.8l-9.3,4.1l-4.8,2L557,108l-2.4,3.6l-2.3,3.9l-1.8,0.8l-4.5,5l-1.3,0.2l-4.3,2.8
	l-2.5,3.2l-0.2,3.2l0.1,8l-1.4,1.7l-5.1,3.8l-2.2,6l2.9,2.2l0.7,3.2l-1.9,3.2l0.2,3.8l0.4,6.7l3,3h3.3l1.9,3.1l3.4,0.5l3.9,5.7
	l7.1,4.1l2.1,2.9l0.7,6.4l-81.2,1.1l-0.3-35.7l-0.5-3l-4.1-3.4l-1.1-1.8v-1.5l2.1-1.6l1.4-1.4L473,144.5L473,144.5z"/>
<path id="ok" class="st1" d="M377.8,336.5l-16.7-1.3l-0.9,11l20.5,1.2l32.1,1.3l-2.3,24.4l-0.5,17.8l0.2,1.6l4.3,3.7l2.1,1.1
	l0.7-0.2l0.7-2.1l1.4,1.8h2.1v-1.4l2.7,1.4l-0.5,3.9l4.1,0.2l2.5,1.1l4.1,0.7l2.5,1.8l2.3-2.1l3.4,0.7l2.5,3.4h0.9v2.3l2.3,0.7
	l2.3-2.3l1.8,0.7h2.5l0.9,2.5l6.3,2.1l1.4-0.7l1.8-4.1h1.1l1.1,2.1l4.1,0.7l3.7,1.4l3,0.9l1.8-0.9l0.7-2.5h4.3l2.1,0.9l2.7-2.1h1.1
	l0.7,1.6h4.1l1.6-2.1l1.8,0.5l2.1,2.5l3.2,1.8l3.2,0.9l1.9,1.1l-0.4-37.2l-1.4-11l-0.2-8.9l-1.4-6.5l-0.8-7.2l-0.1-3.8l-12.1,0.3
	l-46.4-0.5l-45-2.1L377.8,336.5L377.8,336.5z"/>
<path id="tx" class="st7" d="M359,346.8l22.7,1.1l31.1,1.1l-2.3,23.5l-0.3,18.1l0.1,2.1l4.3,3.8l2,1.5l1.2-0.6l0.4-1.8l1.1,1.8h2.1
	v-1.5l1.7,1l1.1,0.4l-0.4,4l4.1,0.1l2.9,1.2l4,0.5l2.4,2.1l2.1-2.1l3.7,0.6l2.2,3.2l1.1,0.3l-0.2,2l2.2,0.8l2.3-2l2.1,0.6h2.2
	l0.9,2.4l6.3,2.1l1.6-0.8l1.5-4.2h0.3l0.9,0.1l1.2,2.1l3.9,0.7l3.3,1.1l3.4,1.2l1.8-1l0.7-2.5h4.5l1.8,0.9l2.8-2.1h1.1l0.9,1.6h4
	l1.5-2l1.9,0.4l2,2.4l3.5,2l2.9,0.8l1.5,0.8l2.5,2l3-1.3l2.7,1.1l0.6,6.1v9.7l0.7,9.5l0.7,3.6l2.7,4.4l0.9,5l4.2,5.5l0.2,3.1
	l0.8,0.8l-0.7,8.4l-2.9,5l1.5,2.1l-0.6,2.3l-0.7,7.4l-1.5,3.3l0.3,3.5l-5.7,1.6l-9.9,4.5l-1,1.9l-2.6,1.9l-2.1,1.5l-1.3,0.8
	l-5.4,5.9l-2.8,2.1l-5.3,3.2l-5.7,2.4l-6.3,3.4l-1.8,1.5l-5.8,3.6l-3.4,0.7l-3.9,5.5l-4,0.3l-1,1.9l2.3,1.9l-1.5,5.5l-1.3,4.5
	l-1.1,3.9l-0.8,4.5l0.8,2.4l1.8,7l1,6.1l1.8,2.8l-1,1.4l-3.1,1.9l-5.7-3.9l-5.5-1.1l-1.3,0.5l-3.2-0.7l-4.2-3.1l-5.2-1.1l-7.6-3.4
	l-2.1-3.9l-1.3-6.5l-3.2-1.9l-0.6-2.3l0.6-0.7l0.3-3.4l-1.3-0.7l-0.6-1l1.3-4.4l-1.6-2.3l-3.2-1.3l-3.4-4.4l-3.6-6.6l-4.2-2.6
	l0.2-1.9l-5.3-12.3l-0.8-4.2l-1.8-1.9l-0.2-1.5l-6-5.3l-2.6-3.1v-1.1l-2.6-2.1l-6.8-1.1l-7.4-0.6l-3.1-2.3l-4.5,1.8l-3.6,1.5
	L352,495l-1,3.7l-4.4,6.1l-2.4,2.4l-2.6-1l-1.8-1.1l-1.9-0.6l-3.9-2.3v-0.6l-1.8-1.9l-5.2-2.1l-7.4-7.8l-2.3-4.7V477l-3.2-6.5
	l-0.5-2.8l-1.6-1l-1.1-2.1l-5-2.1l-1.3-1.6l-7.1-7.9l-1.3-3.2l-4.7-2.3l-1.5-4.4l-2.6-2.9l-1.9-0.5l-0.6-4.7l8,0.7l29,2.7l29,1.6
	l2.2-19.5l3.9-55.6l1.6-18.8h1.4 M459.2,576.4l-0.6-7.1l-2.8-7.2l-0.6-7l1.5-8.2l3.3-6.9l3.5-5.4l3.1-3.6l0.6,0.2l-4.8,6.6l-4.4,6.5
	l-2,6.6l-0.3,5.2l0.9,6.1l2.6,7.2l0.5,5.2l0.2,1.5L459.2,576.4L459.2,576.4L459.2,576.4z"/>
<path id="nm" class="st0" d="M285.6,439.7l-0.8-4.8l8.6,0.5l30.2,3l27.3,1.7l2.2-18.7l3.9-55.9l1.7-19.4l1.6,0.1l0.8-11.2l-104-10.6
	l-17.5,120.4l15.5,2l1.3-10L285.6,439.7L285.6,439.7z"/>
<path id="ks" class="st0" d="M505.4,340.1l-12.6,0.2l-46.1-0.5l-44.6-2.1l-24.6-1.3l3.9-64.6l22.1,0.7l40.3,0.8l44.3,1h5.1l2.2,2.2
	h2l1.6,1l-0.1,3l-1.8,1.7l-0.3,2.2l1.8,3.4l3,3.2l2.3,1.6l1.3,11.2L505.4,340.1L505.4,340.1z"/>
<path id="ne" class="st0" d="M484.4,256.4l3.2,7l-0.1,2.3l3.5,5.5l2.7,3.1h-5l-43.5-0.9l-40.8-0.9l-22.3-0.8l1.1-21.3l-32.3-2.9
	l4.3-44l15.5,1l20.1,1.1l17.8,1.1l23.8,1.1l10.8-0.5l2.1,2.3l4.8,3l1.1,0.9l4.3-1.4l3.9-0.5l2.7-0.2l1.8,1.4l4.1,1.6l3,1.6l0.5,1.6
	l0.9,2.1h1.8l0.8,0.1l0.9,4.7l2.9,8.5l0.6,3.8l2.5,3.8l0.6,5.1l1.6,4.2L484.4,256.4L484.4,256.4z"/>
<path id="sd" class="st0" d="M474,219.7v-0.6l-2.9-4.9l1.9-4.7l1.5-5.9l-2.8-2.1l-0.4-2.7l0.8-2.6h3.2l-0.1-5l-0.3-30.2l-0.6-3.8
	l-4.1-3.3l-1-1.7l-0.1-1.6l2-1.5l1.5-1.7l0.2-2.7l-58.3-1.6l-54.8-3.4l-5.3,63.7l14.6,0.9l20,1.2l17.7,0.9l23.8,1.3l12-0.4l2,2.3
	l5.2,3.3l0.8,0.7l4.5-1.4l6.5-0.6l1.7,1.3l4.2,1.6l3,1.6l0.4,1.5l1,2.2L474,219.7L474,219.7z"/>
<path id="nd" class="st4" d="M473,144.6l-0.6-8.4l-1.7-6.8l-1.9-13l-0.5-11l-1.7-3.1l-1.8-5.2V86.7l0.6-3.8l-1.8-5.5L435,76.8
	l-18.6-0.7l-26.5-1.3l-23-2.1l-7,67.2l54.9,3.3L473,144.6L473,144.6z"/>
<path id="wy" class="st0" d="M357.9,159l-106.7-13.5L237.1,234l113.3,13.6L357.9,159z"/>
<path id="mt" class="st0" d="M366.7,72.7L336,69.9l-29.3-3.6l-29.3-4L245.1,57l-18.4-3.4L194,46.7L189.5,68l3.4,7.5l-1.4,4.6
	l1.8,4.6l3.2,1.4l4.6,10.8l2.7,3.2l0.5,1.1l3.4,1.1l0.5,2.1l-7.1,17.6v2.5l2.5,3.2h0.9l4.8-3l0.7-1.1l1.6,0.7l-0.2,5.3l2.7,12.6
	l3,2.5l0.9,0.7l1.8,2.3l-0.5,3.4l0.7,3.4l1.1,0.9l2.3-2.3h2.7l3.2,1.6l2.5-0.9h4.1l3.7,1.6l2.7-0.5l0.5-3l3-0.7l1.4,1.4l0.5,3.2
	l1.4,0.8l1.9-11L357.8,159L366.7,72.7L366.7,72.7z"/>
<path id="co" class="st0" d="M377.5,336.7l4.9-86.3L269,237.7l-12.2,87.9L377.5,336.7z"/>
<path id="id" class="st0" d="M146,192.2l8.8-35.2l1.4-4.2l2.5-5.9l-1.3-2.3l-2.5,0.1l-0.8-1l0.5-1.1l0.3-3.1l4.5-5.5l1.8-0.5
	l1.1-1.1l0.6-3.2l0.9-0.7l3.9-5.8l3.9-4.3l0.2-3.8l-3.4-2.6l-1.5-4.4l13.6-63.3l13.5,2.5L189.5,68l3.6,7.5l-1.6,4.7l2,4.6l3.1,1.3
	l3.8,9.6l3.5,4.4l0.5,1.1l3.3,1.1l0.4,2.1l-7,17.4l-0.2,2.6l2.6,3.3l0.9-0.1l4.9-3l0.7-1.1l1.6,0.7l-0.3,5.3l2.7,12.6l3.9,3.2
	l1.7,2.2l-0.7,4.1l1.1,2.8l1.1,1.1l2.5-2.4l2.9,0.1l2.9,1.3l2.8-0.7l3.8-0.2l4,1.6l2.7-0.3l0.5-3l2.9-0.8l1.3,1.5l0.4,2.9l1.4,1.2
	l-8.4,53.6L146,192.2L146,192.2z"/>
<path id="ut" class="st0" d="M257,325.8l-83.8-11.9l20.6-112.5l46.8,8.8l-1.5,10.6l-2.3,13.2l7.8,0.9l16.4,1.8l8.2,0.9L257,325.8z"
	/>
<path id="az" class="st0" d="M142.4,398.3l-2.6,2.2l-0.3,1.5l0.5,1l18.9,10.7l12.1,7.6l14.7,8.6l16.8,10l12.3,2.4l24.9,2.7
	L257,325.9L173.3,314l-3.1,16.4h-1.6l-1.7,2.6l-2.5-0.1l-1.3-2.7l-2.7-0.3l-0.9-1.1h-1l-0.9,0.6l-1.9,1l-0.1,7l-0.2,1.7l-0.6,12.6
	l-1.5,2.2l-0.6,3.3l2.7,4.9l1.3,5.8l0.8,1l1,0.6l-0.1,2.3l-1.6,1.4l-3.4,1.7l-1.9,1.9l-1.5,3.7l-0.6,4.9l-2.9,2.7l-2.1,0.7l0.1,0.8
	l-0.5,1.7l0.5,0.8l3.7,0.6l-0.6,2.7l-1.5,2.2L142.4,398.3L142.4,398.3z"/>
<path id="nv" class="st0" d="M193.9,201.3l-23.6,128.8l-1.8,0.4l-1.6,2.4h-2.4l-1.5-2.7l-2.6-0.4l-0.8-1.1h-1l-2.8,1.6l-0.3,6.8
	l-0.4,5.8l-0.4,8.6l-1.4,2.1l-2.4-1.1L81.8,248.2l19-67.6L193.9,201.3L193.9,201.3z"/>
<path id="or" class="st0" d="M146.2,191.2l8.9-34.8l1.1-4.2l2.4-5.6l-0.6-1.2l-2.5-0.1l-1.3-1.7l0.5-1.5l0.5-3.3l4.5-5.5l1.8-1.1
	l1.1-1.1l1.5-3.6l4.1-5.7l3.6-3.9l0.2-3.4l-3.3-2.5l-1.8-4.6l-12.7-3.6l-15.1-3.5l-15.4,0.1l-0.5-1.4l-5.5,2.1l-4.5-0.6l-2.4-1.6
	l-1.3,0.7l-4.7-0.2l-1.7-1.4l-5.3-2.1L97,96l-4.3-1.3l-1.9,1.8l-6.2-0.3l-5.9-4.1l0.7-0.8l0.2-7.8l-2.3-3.9L73.2,79l-0.7-2.4
	l-2.3-0.5l-5.8,2.1l-2.3,6.5l-3.3,10l-3.2,6.5l-5,14.1l-6.5,13.4L36,141.3l-1.9,2.9l-0.8,8.6l0.4,12.1L146.2,191.2L146.2,191.2z"/>
<path id="wa" class="st0" d="M99.6,23.3l4.4,1.5l9.7,2.8l8.6,1.9l20.1,5.7l23,5.7l15.2,3.2L167,107.7l-12.4-3.5l-15.5-3.6h-15.2
	l-0.5-1.3l-5.6,2.2l-4.6-0.7l-2.2-1.6l-1.5,0.5l-4.7-0.1l-1.7-1.3l-5.3-2.1l-0.7,0.2l-4.4-1.7l-1.9,1.8l-6.3-0.3l-5.9-4.1l0.8-0.9
	l0.1-7.7l-2.3-3.8l-4.1-0.6l-0.7-2.5l-2.3-0.5l-3.6,1.2l-2.3-3.2l0.3-2.9l2.8-0.3l1.6-4l-2.5-1.2l0.2-3.7l4.4-0.7l-2.8-2.8l-1.4-7.1
	l0.7-2.9v-7.9l-1.8-3.2L68,28l2.1,0.5l2.4,2.9l2.8,2.6l3.2,1.9L83,38l3.1,0.6l2.9,1.5l3.4,1l2.3-0.2v-2.4l1.3-1.1l2.1-1.3l0.3,1.1
	l0.3,1.8l-2.3,0.5l-0.3,2.1l1.8,1.5l1.1,2.4l0.7,1.9l1.4-0.2l0.2-1.3l-1-1.3l-0.5-3.2l0.8-1.8l-0.7-1.5v-2.3l1.8-3.6l-1.1-2.6
	l-2.4-4.9l0.3-0.8L99.6,23.3L99.6,23.3z M90.1,29.3l2-0.2l0.5,1.4l1.5-1.6h2.4l0.8,1.5l-1.5,1.7l0.7,0.8l-0.7,2l-1.4,0.4l-0.9-0.2
	l1.4-2.6l-1.7-0.6l-0.3,1.5L92.2,34l-1.5-2.3C90.7,31.7,90.1,29.3,90.1,29.3z"/>
<path id="ca" class="st8" d="M142.1,397.8l3.9-0.5l1.5-2l0.5-2.9l-3.6-0.6l-0.5-0.7l0.5-2l-0.2-0.6l1.9-0.6l3-2.8l0.6-5l1.4-3.4
	l1.9-2.2l3.5-1.6l1.6-1.6l0.1-2.1l-1-0.6l-1-1.1l-1.2-5.9l-2.7-4.8l0.6-3.5l-2.4-1l-69-104.2l18.9-67.6l-67.1-15.7l-1.5,4.7
	l-0.2,7.4l-5.2,11.8l-3.1,2.6l-0.3,1.1l-1.8,0.8l-1.5,4.2l-0.8,3.2l2.8,4.2l1.6,4.2l1.1,3.6l-0.3,6.5l-1.8,3.1l-0.6,5.8l-1,3.7
	l1.8,3.9l2.8,4.5l2.3,4.9l1.3,4l-0.3,3.2l-0.3,0.5v2.1l5.7,6.3l-0.5,2.4l-0.7,2.3l-0.7,1.9l0.2,8.2l2.1,3.7l1.9,2.6l2.8,0.5l1,2.8
	l-1.1,3.6l-2.1,1.6h-1.1l-0.8,3.9l0.5,2.9l3.2,4.4l1.6,5.3l1.5,4.7l1.3,3.1l3.4,5.8l1.5,2.6l0.5,2.9l1.6,1v2.4l-0.8,1.9l-1.8,7.1
	l-0.5,1.9l2.4,2.8l4.2,0.5l4.5,1.8l3.9,2.1h2.9l2.9,3.1l2.6,4.9l1.1,2.3l3.9,2.1l4.8,0.8l1.4,2.1l0.7,3.2l-1.4,0.6l0.3,1l3.2,0.8
	l2.8,0.2l3.2-1.7l3.9,4.2l0.8,2.3l2.6,4.2l0.3,3.2v9.4l0.5,1.8l10,1.5l19.7,2.8L142.1,397.8L142.1,397.8L142.1,397.8z M54,354.1
	l1.3,1.5l-0.2,1.3l-3.2-0.1l-0.6-1.2l-0.7-1.5L54,354.1L54,354.1z M55.9,354.1l1.2-0.6l3.6,2.1l3.1,1.2l-0.9,0.6l-4.5-0.2l-1.6-1.6
	L55.9,354.1C55.9,354.1,55.9,354.1,55.9,354.1z M76.6,373.9l1.8,2.3l0.8,1l1.5,0.6l0.6-1.5l-1-1.8l-2.7-2l-1.1,0.2L76.6,373.9
	L76.6,373.9L76.6,373.9z M75.1,382.5l1.8,3.1l1.2,1.9l-1.4,0.2l-1.3-1.1l-0.7-1.9v-2.1L75.1,382.5L75.1,382.5z"/>
<path id="tn" class="st1" d="M694.6,333.8l-52.2,5l-15.9,1.7L622,341h-4v4.5l-8.5,0.2l-6.8,0.5l-8.1,0.2l-1.4,6.6l-1.3,5.3l-3.1,3.1
	l-1.5,4.5l-0.3,2.6l-3.5,2.3l1.5,3.6l-2,4.4v-0.2l107.4-10.4l-0.3-3.1l1.8-1.5l2.8-0.8l0.7-3.7l4.1-2.7l4-1.5l4.1-3.6l4.4-2l0.5-3.1
	l4.1-4l1.5-0.1l0.8,0.1l1.9,0.4l1.3-2.6l3.1-1.6l2.1,0.8l0.8-3l3-2.6l0.8-1.2l0.7-4.6l-2.6-0.1l-2,2.1h-7l-18.5,2.4L694.6,333.8
	L694.6,333.8z"/>
<path class="st9" d="M875.1,171.1l18.8-3"/>
<path class="st10" d="M636.3,266.4v-10h1.3v10H636.3z M640.6,266.4v-10h1.4l5.3,7.9v-7.9h1.3v10h-1.4l-5.3-7.9v7.9H640.6z"/>
<path class="st9" d="M830.3,256l22.3-4.3 M876.6,189.4l22.9,12 M840.8,233.6l14.7-1.5 M877.2,157l14.7-1.6 M858.6,195.8l22.9,12
	 M804.3,264.4l31.2,26.2 M810.1,259.7l34.9,8.5"/>
<g id="mt-name">
	<path class="st10" d="M274.5,110.9v-10h2l2.4,7.1c0.2,0.7,0.4,1.2,0.5,1.5c0.1-0.4,0.3-0.9,0.5-1.6l2.4-7h1.8v10h-1.3v-8.4
		l-2.9,8.4h-1.2l-2.9-8.5v8.5H274.5z M289.5,110.9v-8.8h-3.3v-1.2h7.9v1.2h-3.3v8.8H289.5L289.5,110.9z"/>
</g>
<g id="or-name">
	<path class="st10" d="M84.5,136.2c-0.1-1.4,0.4-2.8,1.3-3.9c0.9-0.9,2.2-1.4,3.5-1.4c0.9,0,1.8,0.2,2.5,0.7s1.3,1.1,1.7,1.8
		c0.4,0.8,0.6,1.8,0.6,2.7s-0.2,1.9-0.6,2.7s-1,1.4-1.7,1.8s-1.6,0.6-2.4,0.6c-0.9,0-1.8-0.2-2.5-0.7s-1.3-1.1-1.7-1.9
		C84.8,137.9,84.5,137.1,84.5,136.2L84.5,136.2z M85.9,136.2c-0.1,1.1,0.3,2.1,1,2.9c0.6,0.7,1.5,1,2.4,1c1,0,1.9-0.4,2.5-1.1
		c0.7-0.8,1.1-1.9,1-3c0-0.7-0.1-1.4-0.4-2.1c-0.3-0.6-0.7-1.1-1.2-1.4S90,132,89.4,132c-0.9,0-1.8,0.3-2.4,1
		C86.2,133.9,85.8,135.1,85.9,136.2L85.9,136.2z M96.5,141v-10h4.4c0.7,0,1.4,0.1,2,0.3c0.5,0.2,0.8,0.6,1.1,1
		c0.3,0.5,0.4,1,0.4,1.5c0,0.7-0.2,1.3-0.7,1.8c-0.6,0.5-1.3,0.9-2.1,0.9c0.3,0.1,0.6,0.3,0.8,0.5c0.4,0.4,0.8,0.8,1.1,1.3l1.7,2.7
		h-1.7l-1.3-2.1c-0.3-0.5-0.6-1-1-1.4l-0.7-0.7l-0.6-0.3h-2.2v4.5H96.5L96.5,141z M97.9,135.5h2.9c0.5,0,0.9-0.1,1.4-0.2
		c0.3-0.1,0.6-0.3,0.8-0.6c0.2-0.3,0.3-0.6,0.3-0.9c0-0.5-0.2-0.9-0.5-1.2c-0.5-0.4-1-0.5-1.6-0.5H98L97.9,135.5L97.9,135.5z"/>
</g>
<g id="wy-name">
	<path class="st10" d="M286.8,198.4l-2.7-10h1.4l1.5,6.6c0.2,0.7,0.3,1.4,0.4,2.1c0.3-1.1,0.4-1.7,0.5-1.9l1.9-6.8h1.6l1.4,5.1
		c0.3,1.1,0.6,2.3,0.8,3.5c0.1-0.6,0.3-1.4,0.5-2.2l1.6-6.4h1.3l-2.7,10H293l-2.1-7.6c-0.2-0.4-0.3-0.8-0.3-1.2l-0.3,1.2l-2.1,7.6
		L286.8,198.4L286.8,198.4z M301.8,198.4v-4.2l-3.9-5.8h1.6l2,3c0.4,0.5,0.7,1.1,1,1.7c0.3-0.5,0.7-1.1,1.1-1.8l1.9-2.9h1.5l-4,5.8
		v4.2H301.8z"/>
</g>
<g id="nv-name">
	<path class="st10" d="M122.7,246.1v-10h1.4l5.3,7.9v-7.9h1.3v10h-1.4l-5.3-7.9v7.9H122.7z M136.4,246.1l-3.9-10h1.4l2.6,7.3
		c0.2,0.5,0.4,1.1,0.5,1.6c0.2-0.5,0.3-1.1,0.5-1.6l2.7-7.3h1.4l-3.9,10H136.4z"/>
</g>
<g id="ut-name">
	<path class="st10" d="M220.7,265.2h1.3v5.8c0,0.8-0.1,1.6-0.3,2.4c-0.2,0.6-0.6,1.1-1.2,1.4c-1.4,0.8-3.1,0.8-4.6,0.1
		c-0.6-0.3-1-0.8-1.3-1.4c-0.3-0.8-0.4-1.6-0.4-2.5v-5.8h1.3v5.8c0,0.6,0.1,1.3,0.2,1.9c0.1,0.4,0.4,0.8,0.8,1
		c0.4,0.3,0.9,0.4,1.4,0.3c0.8,0.1,1.5-0.2,2.1-0.7c0.5-0.7,0.7-1.6,0.6-2.5L220.7,265.2L220.7,265.2z M227.5,275.2v-8.8h-3.3v-1.2
		h7.9v1.2h-3.3v8.8H227.5L227.5,275.2z"/>
</g>
<g id="ia-name">
	<path class="st10" d="M514.8,232.9v-10h1.3v10H514.8z M518.1,232.9l3.8-10h1.4l4.1,10h-1.5l-1.2-3h-4.2l-1.1,3H518.1z M521,228.7
		h3.4l-1-2.8c-0.3-0.7-0.5-1.4-0.7-2.1c-0.1,0.6-0.3,1.3-0.5,1.9L521,228.7L521,228.7z"/>
</g>
<g id="id-name">
	<path class="st10" d="M189.1,168.5v-10h1.3v10H189.1z M192.7,168.5v-10h3.5c0.8,0,1.4,0,1.8,0.1c0.6,0.1,1.1,0.4,1.5,0.7
		c0.5,0.4,0.9,1,1.2,1.7s0.4,1.5,0.4,2.4c0,0.8-0.1,1.4-0.3,2s-0.4,1.1-0.7,1.5s-0.6,0.7-0.9,0.9s-0.7,0.4-1.2,0.5s-1,0.2-1.6,0.2
		L192.7,168.5L192.7,168.5z M194,167.4h2.1c0.7,0,1.2-0.1,1.6-0.2s0.7-0.3,0.9-0.5c0.3-0.3,0.6-0.7,0.7-1.3s0.3-1.2,0.3-1.9
		c0-1-0.2-1.9-0.5-2.4s-0.8-0.9-1.3-1.1c-0.4-0.1-0.9-0.2-1.7-0.2H194V167.4L194,167.4z"/>
</g>
<g id="nm-name">
	<path class="st10" d="M288,389v-10h1.4l5.3,7.9V379h1.3v10h-1.5l-5.3-7.9v7.9H288z M298.8,389v-10h2l2.4,7.1
		c0.2,0.7,0.4,1.2,0.5,1.5c0.1-0.4,0.3-0.9,0.5-1.6l2.4-7h1.8v10h-1.3v-8.4l-2.9,8.4H303l-2.9-8.5v8.5H298.8L298.8,389z"/>
</g>
<g id="ne-name">
	<path class="st10" d="M410.9,246.1v-10h1.4l5.3,7.9v-7.9h1.3v10h-1.4l-5.3-7.9v7.9H410.9z M421.8,246.1v-10h7.2v1.2h-5.9v3.1h5.5
		v1.2h-5.5v3.4h6.2v1.2L421.8,246.1L421.8,246.1z"/>
</g>
<g id="co-name">
	<path class="st10" d="M319.2,288l1.3,0.3c-0.2,1-0.8,1.8-1.5,2.5c-0.7,0.6-1.7,0.9-2.6,0.9c-0.9,0.1-1.8-0.2-2.6-0.7
		c-0.7-0.5-1.2-1.1-1.5-1.9c-0.3-0.9-0.5-1.8-0.5-2.7c0-0.9,0.2-1.9,0.6-2.7c0.4-0.7,1-1.4,1.7-1.8s1.6-0.6,2.4-0.6
		c0.9,0,1.8,0.3,2.5,0.8s1.2,1.3,1.4,2.2l-1.3,0.3c-0.2-0.6-0.5-1.2-1-1.6c-1.1-0.7-2.5-0.7-3.6,0.1c-0.5,0.4-0.9,0.9-1.1,1.5
		s-0.3,1.3-0.3,1.9c0,0.8,0.1,1.5,0.4,2.2c0.2,0.6,0.7,1.1,1.2,1.4s1.1,0.5,1.7,0.5c0.7,0,1.4-0.2,1.9-0.6
		C318.8,289.5,319.1,288.8,319.2,288L319.2,288z M322.4,286.7c-0.1-1.4,0.4-2.8,1.3-3.9c0.9-0.9,2.2-1.4,3.5-1.4
		c0.9,0,1.8,0.2,2.5,0.7s1.3,1.1,1.7,1.8c0.4,0.8,0.6,1.8,0.6,2.7c0,0.9-0.2,1.9-0.6,2.7c-0.4,0.8-1,1.4-1.7,1.8s-1.6,0.6-2.4,0.6
		c-0.9,0-1.8-0.2-2.5-0.7s-1.3-1.1-1.7-1.9C322.7,288.4,322.4,287.6,322.4,286.7L322.4,286.7z M323.8,286.7c-0.1,1.1,0.3,2.1,1,2.9
		c0.6,0.7,1.5,1,2.4,1c1,0,1.9-0.4,2.5-1.1c0.7-0.8,1.1-1.9,1-3c0-0.7-0.1-1.4-0.4-2.1c-0.3-0.6-0.7-1.1-1.2-1.4s-1.2-0.5-1.8-0.5
		c-0.9,0-1.8,0.3-2.4,1C324.1,284.4,323.7,285.6,323.8,286.7z"/>
</g>
<g id="wa-name">
	<path class="st10" d="M113.7,74L111,64h1.4l1.5,6.6c0.2,0.7,0.3,1.4,0.4,2.1c0.3-1.1,0.4-1.7,0.5-1.9l1.9-6.8h1.6l1.4,5.1
		c0.3,1.1,0.6,2.3,0.8,3.5c0.1-0.6,0.3-1.4,0.5-2.2l1.6-6.4h1.3l-2.7,10h-1.3l-2.1-7.6c-0.2-0.4-0.3-0.8-0.3-1.2l-0.3,1.2l-2.1,7.6
		C115.1,74,113.7,74,113.7,74z M124.3,74l3.8-10h1.4l4.1,10h-1.5l-1.2-3h-4.2l-1.1,3C125.6,74,124.3,74,124.3,74z M127.2,69.9h3.4
		l-1-2.8c-0.3-0.7-0.5-1.4-0.7-2.1c-0.1,0.6-0.3,1.3-0.5,1.9C128.4,66.9,127.2,69.9,127.2,69.9z"/>
</g>
<g id="ok-name">
	<path class="st10" d="M454.6,376.2c-0.1-1.4,0.4-2.8,1.3-3.9c0.9-0.9,2.2-1.4,3.5-1.4c0.9,0,1.8,0.2,2.5,0.7
		c0.7,0.4,1.3,1.1,1.7,1.8c0.8,1.7,0.8,3.7,0,5.4c-0.4,0.8-1,1.4-1.7,1.8s-1.6,0.6-2.4,0.6c-0.9,0-1.8-0.2-2.5-0.7s-1.3-1.1-1.7-1.9
		C454.8,377.9,454.6,377.1,454.6,376.2L454.6,376.2z M456,376.2c-0.1,1.1,0.3,2.1,1,2.9c0.6,0.7,1.5,1,2.4,1c1,0,1.9-0.4,2.5-1.1
		c0.7-0.8,1-1.9,1-3c0-0.7-0.1-1.4-0.4-2.1c-0.3-0.6-0.7-1.1-1.2-1.4s-1.2-0.5-1.8-0.5c-0.9,0-1.8,0.3-2.4,1
		C456.3,373.6,456,374.7,456,376.2z M466.6,381v-10h1.3v5l5-5h1.8l-4.2,4.1l4.4,6h-1.8l-3.6-5.1l-1.6,1.6v3.5h-1.3L466.6,381
		L466.6,381z"/>
</g>
<g id="hi-name">
	<path d="M284.7,585.7v-10h1.3v4.1h5.2v-4.1h1.3v10h-1.3V581H286v4.7H284.7z M295.7,585.7v-10h1.3v10H295.7z"/>
</g>
<g id="ga-name">
	<path class="st10" d="M708.8,421v-1.2h4.2v3.7c-0.6,0.5-1.3,0.9-2,1.2c-0.7,0.3-1.4,0.4-2.1,0.4c-0.9,0-1.9-0.2-2.7-0.6
		s-1.4-1-1.8-1.8c-0.8-1.7-0.8-3.7,0-5.4c0.4-0.8,1-1.5,1.8-1.9s1.7-0.6,2.6-0.6c0.7,0,1.4,0.1,2,0.4c0.5,0.2,1,0.6,1.4,1
		c0.3,0.5,0.6,1,0.8,1.6l-1.2,0.3c-0.1-0.4-0.3-0.8-0.6-1.2c-0.3-0.3-0.6-0.6-1-0.7c-0.4-0.2-0.9-0.3-1.4-0.3c-1,0-2,0.3-2.7,1
		c-0.3,0.3-0.5,0.6-0.6,1c-0.3,0.6-0.4,1.3-0.4,2c0,0.8,0.2,1.5,0.5,2.2c0.3,0.5,0.8,1,1.3,1.3c0.6,0.3,1.2,0.4,1.9,0.4
		c0.6,0,1.2-0.1,1.7-0.3c0.4-0.2,0.8-0.4,1.2-0.7v-1.9h-2.9V421z M714.6,424.9l3.8-10h1.4l4.1,10h-1.5l-1.2-3H717l-1.1,3H714.6
		L714.6,424.9z M717.4,420.8h3.4l-1-2.8c-0.3-0.7-0.5-1.4-0.7-2.1c-0.1,0.6-0.3,1.3-0.5,1.9L717.4,420.8z"/>
</g>
<g id="sc-name">
	<path class="st10" d="M750.3,388.1l1.3-0.1c0.1,0.4,0.2,0.8,0.4,1.2c0.3,0.3,0.6,0.6,1,0.8c0.5,0.2,1,0.3,1.5,0.3
		c0.4,0,0.9-0.1,1.3-0.2l0.9-0.6c0.2-0.3,0.3-0.6,0.3-0.9s-0.1-0.6-0.3-0.8l-0.9-0.6c-0.6-0.2-1.2-0.4-1.8-0.5
		c-0.7-0.1-1.3-0.3-1.9-0.6c-0.4-0.2-0.8-0.6-1.1-0.9c-0.2-0.4-0.4-0.8-0.4-1.2c0-0.5,0.1-1,0.4-1.4c0.3-0.5,0.8-0.8,1.3-1
		c0.6-0.2,1.2-0.3,1.8-0.3c0.7,0,1.4,0.1,2,0.4c0.5,0.2,1,0.6,1.3,1.1s0.5,1,0.5,1.6l-1.3,0.1c0-0.5-0.3-1-0.7-1.4
		c-0.5-0.3-1.1-0.5-1.7-0.5c-0.6-0.1-1.3,0.1-1.8,0.4c-0.4,0.2-0.6,0.7-0.5,1.1c0,0.3,0.1,0.7,0.4,0.9c0.6,0.4,1.3,0.6,2,0.7
		c0.7,0.2,1.5,0.4,2.2,0.6c0.5,0.2,1,0.6,1.3,1s0.4,0.9,0.4,1.4s-0.2,1.1-0.5,1.5c-0.3,0.5-0.8,0.9-1.3,1.1
		c-0.6,0.3-1.2,0.4-1.9,0.4c-0.8,0-1.6-0.1-2.3-0.4c-0.6-0.3-1.1-0.7-1.4-1.2C750.5,389.5,750.3,388.8,750.3,388.1z M767.9,387.8
		l1.3,0.3c-0.2,1-0.8,1.8-1.5,2.5c-0.7,0.6-1.7,0.9-2.6,0.9c-0.9,0.1-1.8-0.2-2.6-0.7c-0.7-0.4-1.2-1.1-1.5-1.9
		c-0.4-0.8-0.5-1.8-0.5-2.7c0-0.9,0.2-1.9,0.6-2.7c0.4-0.8,1-1.4,1.7-1.8s1.6-0.6,2.4-0.6c0.9,0,1.8,0.3,2.5,0.8s1.2,1.3,1.4,2.2
		l-1.3,0.3c-0.2-0.6-0.5-1.2-1-1.6c-1.1-0.7-2.5-0.7-3.6,0.1c-0.5,0.4-0.9,0.9-1.1,1.5c-0.2,0.6-0.3,1.3-0.3,1.9
		c0,0.8,0.1,1.5,0.4,2.2c0.2,0.6,0.6,1.1,1.2,1.4c0.5,0.3,1.1,0.5,1.7,0.5c0.7,0,1.4-0.2,1.9-0.6
		C767.4,389.2,767.7,388.6,767.9,387.8L767.9,387.8z"/>
</g>
<g id="nc-name">
	<path class="st10" d="M771,347.2v-10h1.4l5.3,7.9v-7.9h1.3v10h-1.5l-5.3-7.9v7.9H771z M788.9,343.7l1.3,0.3c-0.2,1-0.8,1.8-1.5,2.5
		c-0.7,0.6-1.7,0.9-2.6,0.9c-0.9,0.1-1.8-0.2-2.6-0.7c-0.7-0.4-1.2-1.1-1.5-1.9c-0.4-0.8-0.5-1.8-0.5-2.7c0-0.9,0.2-1.9,0.6-2.7
		c0.4-0.8,1-1.4,1.7-1.8s1.6-0.6,2.4-0.6c0.9,0,1.8,0.3,2.5,0.8s1.2,1.3,1.4,2.2l-1.3,0.3c-0.2-0.6-0.5-1.2-1-1.6
		c-1.1-0.7-2.5-0.7-3.6,0.1c-0.5,0.4-0.9,0.9-1.1,1.5c-0.2,0.6-0.3,1.3-0.3,1.9c0,0.8,0.1,1.5,0.4,2.2c0.2,0.6,0.6,1.1,1.2,1.4
		c0.5,0.3,1.1,0.5,1.7,0.5c0.7,0,1.4-0.2,1.9-0.6C788.4,345.1,788.7,344.5,788.9,343.7L788.9,343.7z"/>
</g>
<g id="al-name">
	<path class="st10" d="M646.5,425.8l3.3-8.6h1.2l3.5,8.6h-1.3l-1-2.6h-3.6l-0.9,2.6H646.5z M649,422.3h2.9l-0.9-2.4
		c-0.3-0.7-0.5-1.3-0.6-1.8c-0.1,0.6-0.3,1.1-0.5,1.6L649,422.3L649,422.3z M655.4,425.8v-8.6h1.1v7.6h4.2v1H655.4z"/>
</g>
<g id="ms-name">
	<path class="st10" d="M591.5,428.7v-10.6h2.1l2.5,7.5c0.2,0.7,0.4,1.2,0.5,1.6c0.1-0.4,0.3-1,0.6-1.7l2.5-7.4h1.9v10.6h-1.3v-8.9
		l-3.1,8.9h-1.3l-3.1-9v9H591.5L591.5,428.7z M603.4,425.3l1.3-0.1c0.1,0.5,0.2,1,0.4,1.3s0.6,0.6,1.1,0.8s1,0.3,1.6,0.3
		c0.5,0,1-0.1,1.4-0.2c0.4-0.2,0.7-0.4,0.9-0.7c0.2-0.3,0.3-0.6,0.3-0.9s-0.1-0.6-0.3-0.9c-0.2-0.2-0.5-0.5-1-0.6
		c-0.3-0.1-0.9-0.3-1.9-0.5s-1.7-0.5-2-0.7c-0.5-0.3-0.9-0.6-1.1-1c-0.2-0.4-0.4-0.8-0.4-1.3s0.2-1,0.5-1.5s0.7-0.8,1.3-1.1
		c0.6-0.2,1.2-0.4,1.9-0.4c0.8,0,1.5,0.1,2.1,0.4s1.1,0.6,1.4,1.1c0.3,0.5,0.5,1,0.5,1.7l-1.3,0.1c-0.1-0.7-0.3-1.2-0.7-1.5
		s-1-0.5-1.8-0.5s-1.5,0.2-1.9,0.5s-0.6,0.7-0.6,1.1s0.1,0.7,0.4,0.9c0.3,0.2,1,0.5,2.1,0.8s1.9,0.5,2.3,0.7
		c0.6,0.3,1.1,0.6,1.4,1.1c0.3,0.4,0.4,0.9,0.4,1.5s-0.2,1.1-0.5,1.6s-0.8,0.9-1.4,1.2c-0.6,0.3-1.3,0.4-2,0.4c-1,0-1.8-0.1-2.4-0.4
		c-0.6-0.3-1.2-0.7-1.5-1.3S603.4,426,603.4,425.3z"/>
</g>
<g id="tn-name">
	<path class="st10" d="M647.3,361.1v-8.8H644v-1.2h7.9v1.2h-3.3v8.8H647.3L647.3,361.1z M653.3,361.1v-10h1.4l5.3,7.9v-7.9h1.3v10
		h-1.4l-5.3-7.9v7.9H653.3z"/>
</g>
<g id="va-name">
	<path class="st10" d="M782.5,303.5l-3.9-10h1.4l2.6,7.3c0.2,0.5,0.4,1.1,0.5,1.6c0.2-0.5,0.3-1.1,0.5-1.6l2.7-7.3h1.4l-3.9,10
		H782.5z M787.5,303.5l3.8-10h1.4l4.1,10h-1.5l-1.2-3h-4.2l-1.1,3H787.5z M790.4,299.4h3.4l-1-2.8c-0.3-0.7-0.5-1.4-0.7-2.1
		c-0.1,0.6-0.3,1.3-0.5,1.9L790.4,299.4z"/>
</g>
<g id="wv-name">
	<path class="st10" d="M731.4,290.5l-2.7-10h1.4l1.5,6.6c0.2,0.7,0.3,1.4,0.4,2.1c0.3-1.1,0.4-1.7,0.5-1.9l1.9-6.8h1.6l1.4,5.1
		c0.3,1.1,0.6,2.3,0.8,3.5c0.1-0.6,0.3-1.4,0.5-2.2l1.6-6.4h1.3l-2.7,10h-1.3l-2.1-7.6c-0.2-0.4-0.3-0.8-0.3-1.2l-0.3,1.2l-2.1,7.6
		L731.4,290.5L731.4,290.5z M746.4,290.5l-3.9-10h1.4l2.6,7.3c0.2,0.5,0.4,1.1,0.5,1.6c0.2-0.5,0.3-1.1,0.5-1.6l2.7-7.3h1.4l-3.9,10
		H746.4z"/>
</g>
<g id="oh-name">
	<path class="st10" d="M687.1,256.1c-0.1-1.4,0.4-2.8,1.3-3.9c0.9-0.9,2.2-1.4,3.5-1.4c0.9,0,1.8,0.2,2.5,0.7
		c0.7,0.4,1.3,1.1,1.7,1.8c0.4,0.8,0.6,1.8,0.6,2.7c0,0.9-0.2,1.9-0.6,2.7c-0.4,0.8-1,1.4-1.7,1.8s-1.6,0.6-2.4,0.6
		c-0.9,0-1.8-0.2-2.5-0.7s-1.3-1.1-1.7-1.9C687.4,257.8,687.1,257,687.1,256.1L687.1,256.1z M688.5,256.1c-0.1,1.1,0.3,2.1,1,2.9
		c0.6,0.7,1.5,1,2.4,1c1,0,1.9-0.4,2.5-1.1c0.7-0.8,1-1.9,1-3c0-0.7-0.1-1.4-0.4-2.1c-0.3-0.6-0.7-1.1-1.2-1.4s-1.2-0.5-1.8-0.5
		c-0.9,0-1.8,0.3-2.4,1C688.8,253.8,688.4,255,688.5,256.1z M699.2,261v-10h1.3v4.1h5.2V251h1.3v10h-1.3v-4.7h-5.2v4.7H699.2z"/>
</g>
<g id="pa-name">
	<path class="st10" d="M774.4,229v-10h3.8c0.5,0,1,0,1.5,0.1c0.4,0,0.9,0.2,1.2,0.5s0.6,0.6,0.8,1s0.3,0.9,0.3,1.4
		c0,0.8-0.3,1.6-0.8,2.2c-0.8,0.7-1.8,1-2.9,0.9h-2.6v4.1h-1.3V229z M775.7,223.7h2.6c0.6,0.1,1.3-0.1,1.8-0.5
		c0.4-0.3,0.5-0.8,0.5-1.3c0-0.4-0.1-0.8-0.3-1.1s-0.5-0.5-0.8-0.6c-0.4-0.1-0.8-0.1-1.2-0.1h-2.6V223.7L775.7,223.7z M782.3,229
		l3.8-10h1.4l4.1,10h-1.5l-1.2-3h-4.2l-1.1,3H782.3z M785.1,224.9h3.4l-1-2.8c-0.3-0.7-0.5-1.4-0.7-2.1c-0.1,0.6-0.3,1.3-0.5,1.9
		L785.1,224.9L785.1,224.9z"/>
</g>
<g id="ny-name">
	<path class="st10" d="M804.1,177.7v-10h1.4l5.3,7.9v-7.9h1.3v10h-1.4l-5.3-7.9v7.9H804.1z M817.8,177.7v-4.2l-3.9-5.8h1.6l2,3
		c0.4,0.5,0.7,1.1,1,1.7c0.3-0.5,0.7-1.1,1.1-1.8l1.9-2.9h1.5l-4,5.8v4.2H817.8L817.8,177.7z"/>
</g>
<g id="dc-name">
	<path d="M838.4,295.8v-10h3.5c0.8,0,1.4,0,1.8,0.1c0.6,0.1,1.1,0.4,1.5,0.7c0.5,0.4,0.9,1,1.2,1.7s0.4,1.5,0.4,2.4
		c0,0.8-0.1,1.4-0.3,2s-0.4,1.1-0.7,1.5s-0.6,0.7-0.9,0.9c-0.3,0.2-0.7,0.4-1.2,0.5s-1,0.2-1.6,0.2L838.4,295.8L838.4,295.8z
		 M839.7,294.6h2.1c0.7,0,1.2-0.1,1.6-0.2c0.4-0.1,0.7-0.3,0.9-0.5c0.3-0.3,0.6-0.7,0.7-1.3c0.2-0.5,0.3-1.2,0.3-1.9
		c0-1-0.2-1.9-0.5-2.4c-0.3-0.6-0.8-0.9-1.3-1.1c-0.4-0.1-0.9-0.2-1.7-0.2h-2.1V294.6z M855.6,292.3l1.3,0.3
		c-0.3,1.1-0.8,1.9-1.5,2.5s-1.6,0.9-2.6,0.9c-1.1,0-2-0.2-2.6-0.7c-0.7-0.4-1.2-1.1-1.5-1.9c-0.4-0.8-0.5-1.7-0.5-2.7
		s0.2-2,0.6-2.7c0.4-0.8,1-1.4,1.7-1.8s1.5-0.6,2.4-0.6c1,0,1.8,0.3,2.5,0.8s1.2,1.2,1.4,2.2l-1.3,0.3c-0.2-0.7-0.6-1.3-1-1.6
		s-1-0.5-1.7-0.5c-0.8,0-1.4,0.2-1.9,0.6s-0.9,0.9-1.1,1.5s-0.3,1.3-0.3,1.9c0,0.9,0.1,1.6,0.4,2.2c0.2,0.6,0.6,1.1,1.2,1.4
		s1.1,0.5,1.7,0.5c0.7,0,1.4-0.2,1.9-0.6S855.5,293.1,855.6,292.3L855.6,292.3z"/>
</g>
<g id="nj-name">
	<path d="M858.5,237.4v-10h1.4l5.3,7.9v-7.9h1.3v10h-1.4l-5.3-7.9v7.9H858.5z M868.6,234.6l1.2-0.2c0,0.6,0.1,1.1,0.4,1.6
		c0.3,0.3,0.7,0.4,1.1,0.4c0.3,0,0.6-0.1,0.9-0.2c0.2-0.2,0.4-0.4,0.5-0.6c0.1-0.4,0.1-0.9,0.1-1.3v-6.9h1.3v6.8
		c0,0.6-0.1,1.3-0.3,1.9c-0.2,0.5-0.5,0.9-1,1.1s-1,0.4-1.5,0.4c-0.8,0.1-1.5-0.2-2-0.8S868.6,235.4,868.6,234.6z"/>
</g>
<g id="md-name">
	<path d="M849.2,275.3v-10h2l2.4,7.1c0.2,0.7,0.4,1.2,0.5,1.5c0.1-0.4,0.3-0.9,0.5-1.6l2.4-7h1.8v10h-1.3v-8.4l-2.9,8.4h-1.2
		l-2.9-8.5v8.5H849.2z M861.6,275.3v-10h3.5c0.6,0,1.2,0,1.8,0.1c0.5,0.1,1.1,0.3,1.5,0.7c0.5,0.5,0.9,1,1.2,1.7
		c0.5,1.4,0.5,3,0.1,4.4c-0.2,0.5-0.4,1-0.7,1.5c-0.2,0.3-0.6,0.7-0.9,0.9c-0.4,0.2-0.8,0.4-1.2,0.5c-0.5,0.1-1.1,0.2-1.6,0.2
		L861.6,275.3L861.6,275.3z M862.9,274.1h2.1c0.5,0,1.1-0.1,1.6-0.2c0.3-0.1,0.7-0.3,0.9-0.5c0.4-0.3,0.6-0.8,0.7-1.3
		c0.2-0.6,0.3-1.3,0.3-1.9c0-0.8-0.1-1.7-0.5-2.4c-0.3-0.5-0.7-0.9-1.3-1.1c-0.6-0.1-1.1-0.2-1.7-0.2h-2.1V274.1z"/>
</g>
<g id="de-name">
	<path d="M855.2,256.1v-10h3.5c0.6,0,1.2,0,1.8,0.1c0.5,0.1,1.1,0.3,1.5,0.7c0.5,0.5,0.9,1,1.2,1.7c0.5,1.4,0.5,3,0.1,4.4
		c-0.2,0.5-0.4,1-0.7,1.5c-0.2,0.3-0.6,0.7-0.9,0.9c-0.4,0.2-0.8,0.4-1.2,0.5c-0.5,0.1-1.1,0.2-1.6,0.2H855.2L855.2,256.1z
		 M856.5,254.9h2.1c0.5,0,1.1-0.1,1.6-0.2c0.3-0.1,0.7-0.3,0.9-0.5c0.4-0.3,0.6-0.8,0.7-1.3c0.2-0.6,0.3-1.3,0.3-1.9
		c0-0.8-0.1-1.7-0.5-2.4c-0.3-0.5-0.7-0.9-1.3-1.1c-0.6-0.1-1.1-0.2-1.7-0.2h-2.1V254.9L856.5,254.9z M866,256.1v-10h7.2v1.2h-5.9
		v3.1h5.5v1.2h-5.5v3.4h6.2v1.2L866,256.1z"/>
</g>
<path d="M903.3,207.5v-10h4.4c0.7,0,1.4,0.1,2,0.3c0.5,0.2,0.8,0.6,1.1,1c0.3,0.5,0.4,1,0.4,1.5c0,0.7-0.2,1.3-0.7,1.8
	c-0.6,0.5-1.3,0.9-2.1,0.9c0.3,0.1,0.6,0.3,0.8,0.5c0.4,0.4,0.8,0.8,1.1,1.3l1.7,2.7h-1.5l-1.3-2.1c-0.3-0.5-0.6-1-1-1.4l-0.7-0.7
	l-0.6-0.3h-2.2v4.5H903.3z M904.7,201.9h2.9c0.5,0,0.9-0.1,1.4-0.2c0.3-0.1,0.6-0.3,0.8-0.6s0.3-0.6,0.3-0.9c0-0.5-0.2-0.9-0.5-1.2
	c-0.5-0.4-1-0.5-1.6-0.5h-3.2v3.4H904.7L904.7,201.9z M914.3,207.5v-10h1.3v10H914.3z M888.6,215.9l1.3,0.3c-0.2,1-0.8,1.8-1.5,2.5
	c-0.7,0.6-1.7,0.9-2.6,0.9c-0.9,0.1-1.8-0.2-2.6-0.7c-0.7-0.5-1.2-1.1-1.5-1.9c-0.4-0.8-0.5-1.8-0.5-2.7s0.2-1.9,0.6-2.7
	c0.4-0.8,1-1.4,1.7-1.8c0.7-0.4,1.6-0.6,2.4-0.6c0.9,0,1.8,0.3,2.5,0.8s1.2,1.3,1.4,2.2l-1.3,0.3c-0.2-0.6-0.5-1.2-1-1.6
	c-1.1-0.7-2.5-0.7-3.6,0.1c-0.5,0.4-0.9,0.9-1.1,1.5c-0.2,0.6-0.3,1.3-0.3,1.9c0,0.8,0.1,1.5,0.4,2.2c0.2,0.6,0.6,1.1,1.2,1.4
	c0.5,0.3,1.1,0.5,1.7,0.5c0.7,0,1.4-0.2,1.9-0.6C888.2,217.4,888.5,216.7,888.6,215.9L888.6,215.9z M894.8,219.4v-8.8h-3.3v-1.2h7.9
	v1.2h-3.3v8.8H894.8L894.8,219.4z"/>
<g id="ma-name">
	<path d="M900.2,172.8v-10h2l2.4,7.1c0.2,0.7,0.4,1.2,0.5,1.5c0.1-0.4,0.3-0.9,0.5-1.6l2.4-7h1.8v10h-1.4v-8.4l-2.9,8.4h-1.2
		l-2.9-8.5v8.5H900.2L900.2,172.8z M911.5,172.8l3.8-10h1.4l4.1,10h-1.5l-1.2-3h-4.2l-1.1,3H911.5z M914.4,168.7h3.4l-1-2.8
		c-0.3-0.7-0.5-1.4-0.7-2.1c-0.1,0.6-0.3,1.3-0.5,1.9L914.4,168.7L914.4,168.7z"/>
</g>
<g id="la-name">
	<path class="st10" d="M539.4,460.2v-10h1.3v8.8h4.9v1.2H539.4z M546.8,460.2l3.8-10h1.4l4.1,10h-1.5l-1.2-3h-4.2l-1.1,3H546.8z
		 M549.7,456.1h3.4l-1-2.8c-0.3-0.7-0.5-1.4-0.7-2.1c-0.1,0.6-0.3,1.3-0.5,1.9L549.7,456.1z"/>
</g>
<g id="nh-name">
	<path d="M891.8,156.6v-10h1.4l5.3,7.9v-7.9h1.3v10h-1.4l-5.3-7.9v7.9H891.8z M902.7,156.6v-10h1.3v4.1h5.2v-4.1h1.3v10h-1.3v-4.7
		H904v4.7H902.7z"/>
</g>
<g id="me-name">
	<path class="st10" d="M879.3,104.2v-10h2l2.4,7.1c0.2,0.7,0.4,1.2,0.5,1.5c0.1-0.4,0.3-0.9,0.5-1.6l2.4-7h1.8v10h-1.3v-8.4
		l-2.9,8.4h-1.2l-2.9-8.5v8.5H879.3z M891.7,104.2v-10h7.2v1.2H893v3.1h5.5v1.2H893v3.4h6.2v1.2
		C899.2,104.3,891.7,104.2,891.7,104.2z"/>
</g>
<g id="vt-name">
	<path class="st10" d="M838,134.6l-3.9-10h1.4l2.6,7.3c0.2,0.5,0.4,1.1,0.5,1.6c0.2-0.5,0.3-1.1,0.5-1.6l2.7-7.3h1.4l-3.9,10H838z
		 M847.7,134.6v-8.8h-3.3v-1.2h7.9v1.2H849v8.8H847.7z"/>
</g>
<g id="sd-name">
	<path class="st10" d="M405,178.4l1.3-0.1c0.1,0.5,0.2,0.9,0.4,1.2s0.6,0.6,1,0.8s1,0.3,1.5,0.3s1-0.1,1.3-0.2s0.7-0.4,0.9-0.6
		s0.3-0.5,0.3-0.9c0-0.3-0.1-0.6-0.3-0.8s-0.5-0.4-0.9-0.6c-0.3-0.1-0.9-0.3-1.8-0.5s-1.6-0.4-1.9-0.6c-0.5-0.3-0.8-0.6-1.1-0.9
		s-0.4-0.8-0.4-1.2c0-0.5,0.1-1,0.4-1.4s0.7-0.8,1.3-1s1.2-0.3,1.8-0.3c0.7,0,1.4,0.1,2,0.4s1,0.6,1.3,1.1s0.5,1,0.5,1.6l-1.3,0.1
		c-0.1-0.6-0.3-1.1-0.7-1.4s-1-0.5-1.7-0.5c-0.8,0-1.4,0.1-1.8,0.4s-0.6,0.6-0.6,1.1c0,0.4,0.1,0.7,0.4,0.9s0.9,0.5,2,0.7
		s1.8,0.5,2.2,0.6c0.6,0.3,1,0.6,1.3,1s0.4,0.9,0.4,1.4s-0.2,1-0.5,1.5s-0.7,0.8-1.3,1.1s-1.2,0.4-1.9,0.4c-0.9,0-1.7-0.1-2.3-0.4
		s-1.1-0.7-1.4-1.2S405,179,405,178.4L405,178.4z M414.8,181.6v-10h3.5c0.8,0,1.4,0,1.8,0.1c0.6,0.1,1.1,0.4,1.5,0.7
		c0.5,0.4,0.9,1,1.2,1.7s0.4,1.5,0.4,2.4c0,0.8-0.1,1.4-0.3,2s-0.4,1.1-0.7,1.5s-0.6,0.7-0.9,0.9s-0.7,0.4-1.2,0.5s-1,0.2-1.6,0.2
		L414.8,181.6L414.8,181.6z M416.1,180.4h2.1c0.7,0,1.2-0.1,1.6-0.2s0.7-0.3,0.9-0.5c0.3-0.3,0.6-0.7,0.7-1.3s0.3-1.2,0.3-1.9
		c0-1-0.2-1.9-0.5-2.4s-0.8-0.9-1.3-1.1c-0.4-0.1-0.9-0.2-1.7-0.2h-2.1V180.4L416.1,180.4z"/>
</g>
<g id="ks-name">
	<path class="st10" d="M435.4,308.1v-10.2h1.3v5l5-5h1.8l-4.3,4.1l4.5,6h-1.8l-3.6-5.1l-1.7,1.6v3.5h-1.2L435.4,308.1z M444.5,304.8
		l1.3-0.1c0.1,0.5,0.2,0.9,0.4,1.3c0.2,0.3,0.6,0.6,1,0.8s1,0.3,1.6,0.3c0.5,0,1-0.1,1.4-0.2c0.4-0.2,0.7-0.4,0.9-0.6
		c0.2-0.3,0.3-0.6,0.3-0.9s-0.1-0.6-0.3-0.8c-0.2-0.2-0.5-0.4-0.9-0.6c-0.3-0.1-0.9-0.3-1.8-0.5s-1.6-0.4-2-0.6
		c-0.5-0.3-0.8-0.6-1.1-0.9c-0.2-0.4-0.4-0.8-0.4-1.3s0.1-1,0.4-1.4s0.7-0.8,1.3-1c0.6-0.2,1.2-0.3,1.9-0.3c0.8,0,1.4,0.1,2,0.4
		c0.6,0.2,1,0.6,1.3,1.1s0.5,1,0.5,1.6l-1.3,0.1c-0.1-0.6-0.3-1.1-0.7-1.5s-1-0.5-1.8-0.5s-1.4,0.1-1.8,0.4s-0.6,0.7-0.6,1.1
		s0.1,0.7,0.4,0.9c0.3,0.2,0.9,0.5,2,0.7s1.8,0.5,2.3,0.6c0.6,0.3,1,0.6,1.3,1s0.4,0.9,0.4,1.4s-0.2,1.1-0.5,1.5
		c-0.3,0.5-0.8,0.9-1.3,1.1c-0.6,0.3-1.2,0.4-2,0.4c-0.9,0-1.7-0.1-2.3-0.4s-1.1-0.7-1.5-1.2C444.7,306.1,444.5,305.5,444.5,304.8
		L444.5,304.8z"/>
</g>
<g id="ky-name">
	<polygon points="665.3,319.7 665.3,309.7 666.6,309.7 666.6,314.7 671.6,309.7 673.4,309.7 669.2,313.8 673.6,319.8 671.8,319.8 
		668.2,314.7 666.6,316.3 666.6,319.8 665.3,319.8 665.3,319.7 	"/>
	<path d="M678.3,319.7v-4.2l-3.9-5.8h1.6l2,3c0.4,0.5,0.7,1.1,1,1.7c0.3-0.5,0.7-1.1,1.1-1.8l1.9-2.9h1.5l-4,5.8v4.2L678.3,319.7
		L678.3,319.7z"/>
	<polygon points="691,308.4 689.1,311 692.2,310.6 692.2,312 689.1,311.7 691.1,314.1 689.7,314.8 688.5,311.9 687.1,314.8 
		685.9,314.1 687.8,311.5 684.7,311.9 684.7,310.5 687.8,310.8 685.9,308.2 687.1,307.5 688.4,310.5 689.6,307.5 691,308.4 	"/>
</g>
<g id="il-name">
	<rect x="587.3" y="258.5" width="1.3" height="10"/>
	<polygon points="592.9,258.5 591.6,258.5 591.6,268.5 597.8,268.5 597.8,267.3 592.9,267.3 	"/>
	<polygon points="603.3,258.4 600.1,258.7 602,256.1 600.6,255.2 599.4,258.2 598.2,255.2 596.9,255.9 598.9,258.5 595.7,258.2 
		595.7,259.6 598.9,259.3 596.9,261.9 598.2,262.6 599.6,259.6 600.8,262.6 602.2,261.9 600.1,259.4 603.3,259.8 	"/>
</g>
<g id="wi-name">
	<path d="M567.7,176.6l-2.7-10h1.4l1.5,6.6c0.2,0.7,0.3,1.4,0.4,2.1c0.3-1.1,0.4-1.7,0.5-1.9l1.9-6.8h1.6l1.4,5.1
		c0.3,1.1,0.6,2.3,0.8,3.5c0.1-0.6,0.3-1.4,0.5-2.2l1.6-6.4h1.3l-2.7,10h-1.3l-2.1-7.6c-0.2-0.4-0.3-0.8-0.3-1.2l-0.3,1.2l-2.1,7.6
		L567.7,176.6L567.7,176.6z"/>
	<rect x="580.1" y="166.6" width="1.3" height="10"/>
	<polygon points="590.5,165.1 588.6,167.7 591.8,167.4 591.8,168.8 588.6,168.4 590.7,170.9 589.3,171.6 588.1,168.6 586.7,171.6 
		585.4,170.9 587.4,168.3 584.2,168.6 584.2,167.2 587.4,167.5 585.4,164.9 586.7,164.2 587.9,167.2 589.1,164.2 590.5,165.1 	"/>
</g>
<g id="mn-name">
	<path d="M491.1,133.2v-10h2l2.4,7.1c0.2,0.7,0.4,1.2,0.5,1.5c0.1-0.4,0.3-0.9,0.5-1.6l2.4-7h1.8v10h-1.3v-8.4l-2.9,8.4h-1.2
		l-2.9-8.5v8.5H491.1z"/>
	<polygon points="503.5,133.2 503.5,123.2 504.9,123.2 510.2,131.1 510.2,123.2 511.5,123.2 511.5,133.2 510.1,133.2 504.8,125.3 
		504.8,133.2 503.5,133.2 	"/>
	<polygon points="520.4,121.4 518.4,124 521.6,123.7 521.6,125.1 518.4,124.7 520.5,127.2 519.1,127.9 517.9,124.9 516.5,127.9 
		515.2,127.2 517.2,124.6 514,124.9 514,123.5 517.2,123.9 515.2,121.2 516.5,120.5 517.7,123.5 519,120.5 520.4,121.4 	"/>
</g>
<g id="nd-name">
	<polygon points="430.2,106.4 428.3,109 431.5,108.6 431.5,110 428.3,109.7 430.4,112.1 429,112.8 427.8,109.9 426.4,112.8 
		425.2,112.1 427.1,109.5 424,109.9 424,108.5 427.1,108.8 425.2,106.2 426.4,105.5 427.6,108.5 428.9,105.5 430.2,106.4 	"/>
	<path d="M404.6,117.7v-10h1.4l5.3,7.9v-7.9h1.3v10h-1.4l-5.3-7.9v7.9H404.6z"/>
	<path d="M414.7,117.7v-10h3.5c0.8,0,1.4,0,1.8,0.1c0.6,0.1,1.1,0.4,1.5,0.7c0.5,0.4,0.9,1,1.2,1.7s0.4,1.5,0.4,2.4
		c0,0.8-0.1,1.4-0.3,2s-0.4,1.1-0.7,1.5s-0.6,0.7-0.9,0.9s-0.7,0.4-1.2,0.5s-1,0.2-1.6,0.2H414.7z M416,116.5h2.1
		c0.7,0,1.2-0.1,1.6-0.2s0.7-0.3,0.9-0.5c0.3-0.3,0.6-0.7,0.7-1.3s0.3-1.2,0.3-1.9c0-1-0.2-1.9-0.5-2.4s-0.8-0.9-1.3-1.1
		c-0.4-0.1-0.9-0.2-1.7-0.2H416V116.5z"/>
</g>
<g id="mi-name">
	<path d="M651.8,202.7v-10h2l2.4,7.1c0.2,0.7,0.4,1.2,0.5,1.5c0.1-0.4,0.3-0.9,0.5-1.6l2.4-7h1.8v10h-1.3v-8.4l-2.9,8.4H656
		l-2.9-8.5v8.5H651.8z"/>
	<rect x="664.4" y="192.7" width="1.3" height="10"/>
	<polygon points="674.1,191.6 672.1,194.2 675.3,193.9 675.3,195.2 672.1,194.9 674.2,197.3 672.8,198 671.6,195.1 670.2,198 
		669,197.3 670.9,194.7 667.8,195.1 667.8,193.9 670.9,194.2 669,191.6 670.2,190.9 671.5,193.9 672.7,190.9 674.1,191.6 	"/>
</g>
<g id="tx-name">
	<path d="M419.9,462.7v-8.8h-3.3v-1.2h7.9v1.2h-3.3v8.8H419.9L419.9,462.7z M425.6,462.7l3.9-5.2l-3.4-4.8h1.6l1.8,2.6
		c0.3,0.4,0.6,0.8,0.8,1.2c0.2-0.4,0.5-0.8,0.8-1.1l2-2.7h1.4l-3.5,4.7l3.8,5.3h-1.6l-2.5-3.6c-0.2-0.2-0.3-0.5-0.4-0.7
		c-0.2,0.4-0.4,0.6-0.5,0.8l-2.5,3.5L425.6,462.7L425.6,462.7z M442.6,451.3l-2,2.7l3.2-0.4v1.4l-3.2-0.4l2.2,2.5l-1.4,0.7l-1.3-3.1
		l-1.4,3.2l-1.3-0.7l2-2.7l-3.2,0.4v-1.4l3.2,0.4l-2-2.7l1.3-0.7l1.3,3.1l1.3-3.1L442.6,451.3L442.6,451.3z"/>
</g>
<g id="fl-name">
	<polygon class="st10" points="754.8,520.8 754.8,510.8 761.6,510.8 761.6,512 756.2,512 756.2,515.1 760.9,515.1 760.9,516.3 
		756.2,516.3 756.2,520.9 754.8,520.9 754.8,520.8 	"/>
	<polygon class="st10" points="764,520.8 764,510.8 765.3,510.8 765.3,519.6 770.2,519.6 770.2,520.8 	"/>
	<polygon class="st10" points="774.5,509.5 772.5,512.1 775.7,511.8 775.7,513.2 772.5,512.8 774.6,515.3 773.2,516 772,513 
		770.6,516 769.4,515.3 771.3,512.7 768.1,513 768.1,511.6 771.3,511.9 769.4,509.3 770.6,508.6 771.8,511.6 773.1,508.6 
		774.5,509.5 	"/>
</g>
<g id="mo-name">
	<g>
		<path d="M528.1,307.3v-10h2l2.4,7.1c0.2,0.7,0.4,1.1,0.5,1.5c0.1-0.4,0.3-0.9,0.5-1.6l2.4-6.9h1.8v10h-1.3v-8.3l-2.9,8.3h-1.2
			l-2.9-8.5v8.5H528.1z"/>
		<path d="M539.3,302.4c0-1.7,0.4-2.9,1.3-3.9c0.9-0.9,2-1.4,3.4-1.4c0.9,0,1.7,0.2,2.5,0.7s1.3,1.1,1.7,1.8
			c0.4,0.8,0.6,1.7,0.6,2.7c0,1-0.2,1.9-0.6,2.7c-0.4,0.8-1,1.4-1.7,1.8c-0.7,0.4-1.6,0.6-2.4,0.6c-0.9,0-1.8-0.2-2.5-0.7
			c-0.7-0.5-1.3-1.1-1.7-1.9C539.5,304.1,539.3,303.3,539.3,302.4z M540.7,302.4c0,1.2,0.3,2.1,1,2.8c0.6,0.7,1.5,1,2.4,1
			c1,0,1.8-0.3,2.5-1c0.6-0.7,1-1.7,1-3c0-0.8-0.1-1.5-0.4-2.1c-0.3-0.6-0.7-1.1-1.2-1.4c-0.5-0.3-1.1-0.5-1.8-0.5
			c-0.9,0-1.7,0.3-2.4,1C541,299.9,540.7,300.9,540.7,302.4z"/>
	</g>
	<polygon points="556.3,295.2 554.4,297.8 557.5,297.5 557.5,298.9 554.4,298.5 556.5,301 555.1,301.6 553.9,298.7 552.5,301.6 
		551.3,301 553.2,298.3 550.1,298.7 550.1,297.3 553.2,297.6 551.3,295 552.5,294.3 553.7,297.3 554.9,294.3 556.3,295.2 	"/>
</g>
<g id="ca-name">
	<polygon class="st10" points="81.7,277.6 79.8,280.2 82.9,279.9 82.9,281.3 79.8,280.9 81.9,283.4 80.5,284.1 79.3,281.1 
		77.9,284.1 76.7,283.4 78.6,280.7 75.4,281.1 75.4,279.7 78.6,280.1 76.7,277.4 77.9,276.7 79.1,279.7 80.3,276.7 	"/>
	<path class="st10" d="M65,285.3l1.3,0.3c-0.3,1.1-0.8,1.9-1.5,2.5s-1.6,0.9-2.6,0.9c-1.1,0-2-0.2-2.6-0.7s-1.2-1.1-1.5-1.9
		s-0.5-1.7-0.5-2.7c0-1,0.2-2,0.6-2.7s1-1.4,1.7-1.8s1.5-0.6,2.4-0.6c1,0,1.8,0.3,2.5,0.8s1.2,1.2,1.4,2.2l-1.3,0.3
		c-0.2-0.7-0.6-1.3-1-1.6s-1-0.5-1.7-0.5c-0.8,0-1.4,0.2-1.9,0.6s-0.9,0.9-1.1,1.5s-0.3,1.3-0.3,1.9c0,0.9,0.1,1.6,0.4,2.2
		s0.6,1.1,1.2,1.4s1.1,0.5,1.7,0.5c0.7,0,1.4-0.2,1.9-0.6S64.8,286.1,65,285.3z"/>
	<path class="st10" d="M66.8,288.8l3.8-10h1.4l4.1,10h-1.5l-1.2-3h-4.2l-1.1,3H66.8z M69.7,284.7h3.4l-1-2.8
		c-0.3-0.8-0.6-1.5-0.7-2.1c-0.1,0.6-0.3,1.3-0.5,1.9L69.7,284.7z"/>
</g>
<g id="az-name">
	<path class="st10" d="M193.9,374.6l3.8-10h1.4l4.1,10h-1.5l-1.2-3h-4.2l-1.1,3H193.9z M196.8,370.5h3.4l-1-2.8
		c-0.3-0.7-0.5-1.4-0.7-2.1c-0.1,0.6-0.3,1.3-0.5,1.9L196.8,370.5z M204.2,374.6v-1.2l5.1-6.4c0.4-0.5,0.7-0.9,1-1.2h-5.6v-1.2h7.2
		v1.2l-5.6,7l-0.6,0.7h6.4v1.2h-7.9L204.2,374.6L204.2,374.6z"/>
</g>
<g id="ar-name">
	<path class="st10" d="M535.3,387.7l3.8-10h1.4l4.1,10h-1.5l-1.2-3h-4.2l-1.1,3H535.3z M538.2,383.6h3.4l-1-2.8
		c-0.3-0.7-0.5-1.4-0.7-2.1c-0.1,0.6-0.3,1.3-0.5,1.9L538.2,383.6z M546.5,387.7v-10h4.4c0.7,0,1.4,0.1,2,0.3c0.5,0.2,0.9,0.5,1.1,1
		c0.3,0.5,0.4,1,0.4,1.5c0,0.7-0.2,1.3-0.7,1.8c-0.6,0.5-1.3,0.9-2.1,0.9c0.3,0.1,0.6,0.3,0.8,0.5c0.4,0.4,0.8,0.8,1.1,1.3l1.7,2.7
		h-1.7l-1.3-2.1c-0.3-0.5-0.6-1-1-1.4l-0.7-0.7l-0.6-0.3h-2.2v4.5L546.5,387.7L546.5,387.7z M547.8,382.1h2.9c0.5,0,0.9-0.1,1.4-0.2
		c0.3-0.1,0.6-0.3,0.8-0.6c0.2-0.3,0.3-0.6,0.3-0.9c0-0.5-0.2-0.9-0.5-1.2c-0.5-0.4-1-0.5-1.6-0.5h-3.2v3.4L547.8,382.1L547.8,382.1
		z M562.4,377.2l-1.9,2.6l3.2-0.4v1.4l-3.2-0.4l2.1,2.5l-1.4,0.7l-1.2-3l-1.4,3.2l-1.2-0.7l1.9-2.6l-3.2,0.4v-1.4l3.2,0.4l-1.9-2.6
		l1.2-0.7l1.2,3l1.2-3L562.4,377.2L562.4,377.2z"/>
</g>
<g id="ak-name_1_">
	<polygon points="125.2,507 123.1,509.6 126.2,509.2 126.2,510.6 123.1,510.3 125.2,512.7 123.8,513.4 122.6,510.5 121.2,513.4 
		119.9,512.7 121.9,510.1 118.7,510.5 118.7,509.1 121.9,509.4 119.9,506.8 121.2,506.1 122.4,509.1 123.6,506.1 	"/>
	<path d="M99.5,517.9l3.8-10h1.4l4.1,10h-1.5l-1.2-3H102l-1.1,3H99.5z M102.4,513.8h3.4l-1-2.8c-0.3-0.8-0.6-1.5-0.7-2.1
		c-0.1,0.6-0.3,1.3-0.5,1.9L102.4,513.8z"/>
	<path d="M109.9,517.9v-10h1.3v5l5-5h1.8l-4.2,4.1l4.4,6h-1.8l-3.6-5.1l-1.6,1.6v3.5H109.9z"/>
</g>
</svg>
